<?xml version="1.0" encoding="utf-8"?>
<!-- Generator: Adobe Illustrator 16.0.0, SVG Export Plug-In . SVG Version: 6.00 Build 0)  -->
<!DOCTYPE svg PUBLIC "-//W3C//DTD SVG 1.1//EN" "http://www.w3.org/Graphics/SVG/1.1/DTD/svg11.dtd">
<svg version="1.1"
	 id="svg1895" xmlns:dc="http://purl.org/dc/elements/1.1/" xmlns:cc="http://creativecommons.org/ns#" xmlns:rdf="http://www.w3.org/1999/02/22-rdf-syntax-ns#" xmlns:svg="http://www.w3.org/2000/svg"
	 xmlns="http://www.w3.org/2000/svg" xmlns:xlink="http://www.w3.org/1999/xlink" x="0px" y="0px" width="1530.748px"
	 height="2138px" viewBox="0 0 1530.748 2138" enable-background="new 0 0 1530.748 2138" xml:space="preserve">
<g id="layer2">
</g>
<g id="layer1">
</g>
<g id="layer3">
	<g id="g5728">
		<rect id="rect2713" x="-6.081" y="-11.604" fill="#E0E0E0" width="1535.432" height="2149.604"/>
		<polygon id="rect2263" fill="#9EC7F3" stroke="#FFFF00" stroke-width="2.9959" stroke-opacity="0.0627" points="
			1029.254,1082.935 755.2,1384.848 266.741,967.373 540.795,665.46 		"/>
		
			<rect id="rect2261" x="-12.774" y="1218.13" fill="#9EC7F3" stroke="#FFFF00" stroke-width="5.7786" stroke-opacity="0.0627" width="1532.655" height="922.522"/>
		
			<rect id="rect2205" x="430.305" y="1131.888" fill="#FBFED1" stroke="#FFFF00" stroke-width="3.0012" stroke-opacity="0.0627" width="177.787" height="185.868"/>
		
			<rect id="rect2203" x="504.409" y="403.714" fill="#FBFED1" stroke="#FFFF00" stroke-width="3.0012" stroke-opacity="0.0627" width="67.143" height="124.286"/>
		
			<rect id="rect2201" x="910.123" y="575.143" fill="#FBFED1" stroke="#FFFF00" stroke-width="3.0012" stroke-opacity="0.0627" width="162.857" height="307.144"/>
		
			<rect id="rect2197" x="240.379" y="519.685" fill="#9EC7F3" stroke="#FFFF00" stroke-width="3.5139" stroke-opacity="0.0627" width="462.344" height="635.202"/>
		<path id="path1881" fill="#F7D3AA" stroke="#000000" stroke-width="3" d="M1398.773,2130.5c-1.313-5.254,0.645-7.355-4-12
			c-6.255-6.255,1.07-7,6-7C1402.609,2111.5,1398.921,2130.131,1398.773,2130.5z"/>
		<path id="path1921" fill="none" stroke="#000000" stroke-width="3" d="M350.773,1779.5c0-2.466-7.859-2.564-6-10
			C345.151,1767.991,355.025,1768.871,350.773,1779.5z"/>
		<rect id="rect2269" x="-14.049" y="1641.604" fill="#E0E0E0" width="88.344" height="159.139"/>
		
			<rect id="rect2271" x="127.42" y="1645.164" fill="#CA936A" stroke="#FFFF00" stroke-width="3.0012" stroke-opacity="0.0627" width="88.571" height="137.144"/>
		
			<rect id="rect2265" x="-12.995" y="4.045" fill="#E0E0E0" stroke="#FFFF00" stroke-width="3.6635" stroke-opacity="0.0627" width="335.906" height="1654.951"/>
		<rect id="rect6157" x="991.552" y="1155.143" fill="#E0E0E0" width="525.714" height="194.286"/>
		
			<rect id="rect6159" x="1420.352" y="1143.943" fill="#E0E0E0" stroke="#CB9369" stroke-width="3.458" stroke-opacity="0" width="99.543" height="996.686"/>
		<path id="path2259" fill="#E0E0E0" stroke="#CB9369" stroke-width="0.9878" stroke-opacity="0" d="M309.092,1709.692
			c0,9.067,0,43.319,0,64.654c0,14.897-23.655-10.679-23.655-28.286c0-26.361-7.885-44.298-7.885-8.082
			c0,25.018,0.214,36.588,11.828,48.49c3.658,3.75-36.162,3.345-43.368-4.04c-3.961-4.061-3.076-53.021-3.942-56.572
			c-4.416-18.104,3.991-40.209,0-56.572c-7.496-30.732-15.77,8.563-15.77,24.245c0,23.515,3.942,34.44,3.942,56.572
			c0,20.894,4.36,34.657,0,52.531c-5.89,24.146-47.862-6.344-51.253-8.082c-24.437-12.522-35.369-7.965-15.77,12.123
			c10.595,10.859-32.772-1.263-43.368-12.123c-11.601-11.891-2.186-47.612,0-56.572c4.841-19.847,0-47.892,0-68.694
			c0-3.8-31.519-8.038-15.771,24.245c8.989,18.426-2.118,46.62-11.827,56.572c-12.959,13.282,6.995,30.502,11.827,40.408
			c11.363,23.294-6.918,39.419-15.77,48.491c-17.916,18.362-53.601-16.936-59.138-28.286c-6.051-12.404-22.356,16.841-35.483,20.204
			c-17.5,4.484-3.942-32.898-3.942-44.449"/>
		<path id="path2172" fill="none" stroke="#000000" stroke-width="1" d="M19.852,236.313L19.852,236.313z"/>
		<path id="path2170" fill="none" stroke="#000000" stroke-width="1" d="M324.866,137.454L324.866,137.454z"/>
		<path id="path2173" fill="none" stroke="#000000" stroke-width="1" d="M331.22,128.694v-7.508h-3.813L331.22,128.694z"/>
		<path id="path3149" fill="none" stroke="#000000" stroke-width="1" d="M483.728,353.943L483.728,353.943z"/>
		<path id="path3150" fill="none" stroke="#000000" stroke-width="1" d="M303.26,630.498L303.26,630.498z"/>
		<path id="path3166" fill="none" stroke="#000000" stroke-width="1" d="M99.917,770.653L99.917,770.653z"/>
		<path id="path3173" fill="none" stroke="#000000" stroke-width="1" d="M266.404,895.791L266.404,895.791z"/>
		<path id="path3175" fill="none" stroke="#000000" stroke-width="1" d="M280.384,887.031L280.384,887.031z"/>
		<g id="g5219" transform="matrix(2.5417852,0,0,2.5027642,-20.817184,-25.22581)">
			<g id="g4167">
				<path id="path3168" fill="#D0D6EC" stroke="#FFFFFF" stroke-width="0.3965" d="M46,321l1.5-3.5L44,313l0.5-6.5l-3-3.5l0.5-4
					l10-3l6-3l-0.5-4l9.5,0.5l1.5-1.5l-1.5-2.5l-2.5,1.5l-3.5-2l6.5-3.5L75,284l0.5,4l3,1l3-3.5l2.5,2l-0.5,5.5l4.5,2l11-6l-0.5-1
					l5.5,2l3,2.5l4-0.5l3.5,3.5l4-1.5v5l0.5,2.5l4,2h2.5v3l-1,2.5l-5.5,0.5l-3,2.5h2l3,3l-4.5,3.5l0.5,2.5l0,0l0.5,13.5l-5,3.5
					l-1,1.5l0,0l2.5,5l4-1l0.5,3l1,2.5l1.5,1.5l-6.5,2.5l-2,2l2.5,2l-3,1.5l2,1.5l-2,1.5l5.5,1l1,2l-4,1l-0.5,2h-5l-7-3l-4.5-4l-2-1
					l-3.5-1v-2l4-1l0.5-10.5l-3.5-7.5l-4-0.5l-2,3l-7.5-0.5L75,337l-3.5,3l-4.5-2.5l-4.5-4.5l-2,0.5L60,331l-4.5-1l-5-2.5L46,321z"
					/>
				<g id="g4150">
					<g id="g3158">
						<g id="g3153">
							<path id="path4167" fill="#F9D0CF" stroke="#FFFFFF" stroke-width="0.3965" d="M100.5,57.5L103,55l2.5,0.5l2.5,2l-2,5.5l3,1
								l2.5,3l3-0.5L114,63l-2.5-1.5l3-3.5l5.5,0.5l2.5,3.5l2,2.5L126,67l1-1.5h4.5l1,1l3-1.5v3.5l0.5,6l3.5,2.5l3.5,2l1,2.5l-0.5,3
								l-1,7.5l1.5,5l1,5.5l4,3.5l4.5,3l3.5,3l-1.5,4l-1.5,3.5l-1.5,2l-3-3.5l-5,4.5l0.5,5.5l-4-4l-2.5,5l-8-2l-5.5,1.5l2,5l-2.5,3
								L123,139l-4.5-0.5l-4-3.5H112v-5.5l-4-1v-12l-2-2.5l-2-3.5l-5.5-1.5l0.5-2.5l-1.5-1v-4L97,100l2-2.5l-1.5,2.5l3-4.5l3-1.5
								v-8.5l1.5-3v-2l-0.5-7l1.5-3l-5.5-6V57.5z"/>
							
								<path id="path2169" fill="#F9F6C2" stroke="#FFFFFF" stroke-width="0.3965" stroke-linecap="round" stroke-linejoin="round" d="
								M46,36l-1-3.5L44,30l2.5-3.5l2-4.5l2-6l4-6l1,6.5L56,20l4,4l4-1l1,3.5l4,1l0.5,3l4,1.5l0.5,2l4,1l2.5-3l1.5,4l2,2.5l3,2l1,2
								l2.5-1L92,43l-1.5,3.5L92,48l2,1.5v1l4-0.5v2l1,2h-6.5l0.5,4.5l-4.5,1l-0.5,2l4-0.5l3.5-1.5l3.5-3l2.5,2L101,63l2,3.5
								l2.5,3.5l-1,3.5v5V83l-1.5,4l1,5l-2.5,3.5l-3.5,5l-4-1L88.5,99l-2-4L84,93l3-5.5l-2-4l-2.5-3l-4-1.5l-2-2L75,74l-2.5,1
								c0,0-0.625-0.5-2-1c-1.375-0.5-3.5-1-3.5-1l-2.5-1L62,74l-4-1l-3.5-1.5l-3,2L51,76c0,0-1.625-0.25-3.5-1c-1.875-0.75-4-2-4-2
								l-1-1.5l3.5-2l2-2.5l-1.5-3v-7l5.5-0.5l2-2l2-3l4.5-1.5l1-3.5l2.5,4l2.5-1.5l2-3.5l-2-2.5l-2-3v-3.5l-3.5-3l-4.5,1l-2.5-4
								l-2.5,2l-3-0.5L46,36z"/>
							<path id="path2192" fill="#F9D0CF" stroke="#FFFFFF" stroke-width="0.3965" d="M19.5,131.5L17,127l-3-4l2-4.5l-5-1l1.5-8
								L16,107l-0.5-3l2-4l6-4l2-5.5L21,88l2.5-4.5l1-4.5l5.5-2v-5l7.5,1l5.5-1.5l7.5,5l1.5-4l5.104-1.072L61.5,73l4-0.5l10,2.5
								l4,4.5L83,81l5,6l-3.5,5l1,3.5L83,98l-1,4h-3.5L76,98l-1.5,3h-3l-1.5,5.5l2,2l-2.5,0.5l-3,5l-1,3l-1.5,3l2,2.5l-3,0.5h-2
								v-2.5l-6.5,0.5v4H52l-0.5,5l3,1.5l-2,2v4.5l2.5,1.5l3,2.5l-0.5,3.5L54,146l-3-3l-2.5-1.5v-2L45,136h-3l-1-3.5l-5.5-3L36,127
								l-0.5-1.5L31,127l-3,2.5l-2.5-3L19.5,131.5z"/>
							<path id="path2175" fill="#D0D6EC" stroke="#FFFFFF" stroke-width="0.3965" d="M134.5,59l-1.5-4l-4,3l-2-3l3-2.5l-1.5-2.5
								l-2.5-0.5l-1.5,1.5l-5-2.5l-1-4.5l5-7.5L128,35v3l1.5,1l4.5,1.5l3,3l6.5-0.5l1.5,3.5l-3,0.5l2.5,3l-2.5,3h6l2,3.5l-0.5,1.5
								h-3l-3-3v4.5l2.5,3l4,4.5l0.5,3l-1.5,1.5l4.5,9l8,1.5l4,4l0.5,3l-2,1l0.5,1l3.5,0.5l4,2l3.5,4L182,99l3-5.5l2,0.5l0.5,2.5
								l2.5,1l2,2l2-1.5l-1,9.5l4,0.5l5.5,6l1-0.5v3h4.5l0.5,1.5l-4.5,6l-2.5,0.5l0.5,6l-5.5,4L195,134l-0.5-4.5L193,130l-1,2.5
								l-4-0.5l-3-1l-0.5,1l-10-6c0,0,2.5-3,0-3.5c-2.5-0.5-5-2-5-2V117l-3,0.5L162,114l-5-2l-3-3.5l-6.412-2.12L144.5,101.5L142,90
								l1.5-7.5v-3l-8-5l0.5-10l4-1.5l-2.5-3.5L134.5,59z"/>
							<path id="path2174" fill="#C8E3C3" stroke="#FFFFFF" stroke-width="0.3965" d="M85.5,94.5L83,97l-1,4l-3.5,1l-3-4.5l-1,3.5
								H71l-1.5,5.5L72,108v1.5l-3-0.5l-4.5,10l1.5,2.5l-1,1.5l-4,0.5l-0.5-3l-1.5,1l-5.5-1l1,5l-2.5-1l-0.5,4.5l2.5,1.5l-1.5,3.5
								l0.5,3.5l5,4v4l2,1.5l-0.5,4.5l-2,1v4l3,2H65v4l3.5,2.5l1.5,3.5l6,0.5l3.5-1l1,2.5L85,171v2l7,1l2-2l2.5-1.5
								c0,0,6,2.5,4.5,0.5c-1.5-2-1.5-5.5-1.5-5.5l3,3l3-3v5l2.5,1l2,4.5l-2,5l-2.5,1.5l3,1.5l0.5,4l6.5,6.5l1.5-2.5l1.5,2v2l12.5,1
								l1.5,2l-0.5,3.5l5.5,3l5-1l2.5,4l7-1l15,3.5l4-2v-3.5l-4-4.5l-0.5-4.5L161,192l1-2l-1.5-1H158l-0.5-3H153l-3-3.5l1.5-1l-5-3
								l-3.5-14l-2-5l-7.5-1.5l-3.5-8l-7-4.5l-1-7l-5.5-1.5l-2-2l-3-0.5l1.5-5.5h-5l-0.5-12l-4-7l-4.5-1l-1.5-4v-4.5L89,99
								L85.5,94.5z"/>
							<path id="path2176" fill="#F9F6C2" stroke="#FFFFFF" stroke-width="0.3965" d="M167,200.5v-4l-6.5-4.5l1.5-2.5l-4-1v-2
								l-5-0.5l-4-3.5l2.5-0.5l-6.5-3.5l-4-18.5l-8-2l-3.5-8l-6-3.5l-2-8l5-5l-1.5-5l5.5-1.5l8.5,1.5l1.5-4l5,4l-0.5-6l5-5l2,4l6-9
								l7.5,5h3.5v3.5l5.5,2l2,4.5l8,5l1-2l6,3l1.5,1.5l-0.5,1.5l4.5,1l1.5,2l-4.5,2l4,1.5l1.5,2v3.5l-1.5,1v2.5l3,1.5l0.5,1.5
								l-2,1.5l-4,3l1.5,2.5l-2.5,1.5L193,161l-3-1l-0.5,1.5l-4-0.5l-2,2.5l5,4.5l-0.5,3.5l3,2l-3.5,4.5l-3.5,0.5l-3.5,4l-5,9.5v1
								l1.5,2.5l-2.5,1l5.5,4H167z"/>
							<path id="path3151" fill="#C8E3C3" stroke="#FFFFFF" stroke-width="0.3965" d="M199,148v-3.5l-4.5-4l4.5-0.5l-3-3h-3.5
								l-1.5-4.5l3.5-3v3.5l2.5,2l4.5-4l0.5-6.5l6.5-5.5l-0.5-2l-4.5-0.5V113l-2,1.5l-5-7h-4l1.5-9h7l1,2l-0.5,2.5l3,3l1-2l2.5-1
								v-2.5l-2.5-0.5l-0.5-4.5l5.5-4h4.5V89l-1.5-1l-0.5-4l-1.5,0.5l-1,2l-1,1.5l-2-1l2-3.5l-1-2l-1-2V77h2l3-3.5l1-2.5l-0.5-3
								l1.5-1.5h4.5l3,2.5l-2,2l-0.5,2.5l-0.5,1l1.5,3l2-1.5h5.5l1.5,4.5l5,8.5l-2,1v3l3,1l2.5,7.5h5l-5,4.5l5,1.5l3.5,1.5v1.5
								L244,113l-4.5,4l0.5,5.5l-2.5,3.5l2,3.5l2,3.5l-3,3v3l2.5,0.5l-1,4l4.5,3.5v13l-2.5,5l-0.5,8l-1,4.5L239,179l-0.5,5.5
								L236,183l-3.5-2v3l2,1.5L230,189l-2-0.5v-2l-1,1l-4-0.5v-2.5l2-1l-2-0.5v-2.5l1.5-4l-6-1.5l3.5-1.5l-2-3v-2l-4.5-4H212
								l-1,2.5l-1.5-4l-6-3l-2-5.5L199,152V148z"/>
							<path id="path2177" fill="#D0D6EC" stroke="#FFFFFF" stroke-width="0.3965" d="M158,208.5l8.5,3l4-2l1-3.5l-4-5.5L179,201
								l-4.5-4.5l3.5-0.5l-2.5-4l7-11l2.5-3l2.5,1l4-5.5l-3.5-2l0.5-4.5l-4.5-3.5l1.5-2.5l4-1.5l4,1l0.5,4l4-2l-2.5-3.5l6-3.5l4,5.5
								l3.5,2.5l2,4.5l1.5-3h3l4,3.5v2l2.5,2.5l-5,2.5l7.5,1.5l-1.5,1.5v4.5l1,1l-1.5,0.5v2.5l4,0.5l2-2v2.5l1.5,1v8l2.5,5.5
								l0.5,3.5l-3.5,5l-2.5-0.5l-3.5,3L223,218l-3.5,5l-3,3.5v2.5l1.5,2.5l2,0.5l-2.5,1.5l-1,3l-1-2L210,234l-4.5,1.5l-1,2.5H202
								l-1-2l-7.5-1.5l-2-2.5l-1.5-0.5l-1.5,2L186,232l-1.5-0.5l-1,2l-4-0.5l-1.5-5h-2l-1.5-1.5L169,226l-2,2.5l-3-2.5v-1.5l-4-5.5
								h-1.5l-2-2.5l-1-2.5L158,208.5z"/>
							<path id="path3152" fill="#F9D0CF" stroke="#FFFFFF" stroke-width="0.3965" d="M132.5,259l-0.5-9l1-1l0.5-11l-3-3H128l-1,2
								h-2l-2-4v-2.5l1.5-0.5l0.5-7.5l-3-0.5l1.5-1l-2-4l2.5-2.5l-0.5-3.5l1-7l6-2l2,0.5l4.5,3.5l5.5-1l2.5,3.5l7-1l5.5,2l-2,4
								l2.5,4l2.5,2l3.5,5l-0.5,1.5l4.5,3v2l-3,2.5l-2,1l2,3l-3,1l1,2l-3-1.5l-2.5,7h-2v4l1.5,1.5l-0.5,2L154,253v-1.5h-5.5L148,248
								l-3.5-1.5l-0.5,7h-1.5l0.5,2l3,2v1.5l-4.5,3l-1.5,1l-2.5-2l-2.5,3v-2h-2.5v2l-1-1.5H128v-3L132.5,259z"/>
							<path id="path2179" fill="#F9F6C2" stroke="#FFFFFF" stroke-width="0.3965" d="M127.5,263v-3.5l5-0.5l-1-9l2-0.5L133,239
								l-3-5h-1l-2,2.5l-2.5,0.5l-2.5-4.5v-2h2l1.5-8H120l3-1l-3-4l2-2.5l-4-0.5h-2l-6.5-4L108,214l-3.5,2.5h-1l-2.5-3l-2.5,1.5
								l-6-3.5l-3.5-1l-1,2l-9.5-0.5l-2.5,5h-2.5v-3l-1.5-1.5l-1.5,2l-2-2.5h-3l-2.5-2l-1,2l-3.5,1.5l0,0l-0.5,4l4,2v1.5l-3.5,1.5v7
								l1,1.5l-2.5-0.5l-0.5,4.5l2.5,2l-2,2.5l-2.5,1.5v3l-2.5,0.5v2h3.5l3,3L59,255h1.5v-2l0.5-2h2l3.5,3.5v2l-3.5,6l-2.5,1l-4,0.5
								l-0.5,1.5l-4.5-1l-1.5,3l3.5,2l2-1h6l-2,3l2.5,1l5,0.5l1.5,3l-2.5,0.5l-2.5-1h-2L61,277l3.5,1l3,1.5L68,281l2.5,1.5L76,284
								v3.5l2.5,1l3-4L84,288l-0.5,5.5l2,2l0.5-1h2.5l3-1.5l7-5h2l0.5,2l3.5-0.5l0,0l2.5,3l1-1h3.5l3,3.5l0.5-1l3-0.5l1.5,2v5l2.5,2
								l2.5,0.5l5.5,0.5v3l1,1h2l0.5-1.5v2h3l1,3l2-2.5l1.5,0.5l3.5-3v-5l-1.5-1v-3.5l4-6l1.5-2.5l-0.5-4.5l1-4l-2.5,2L141,282
								l0.5-4.5l-3.5-6h-1l-4,4l-1.5-0.5l-4.5,4l-0.5-11l-2-1L127.5,263z"/>
							<path id="path2180" fill="#C8E3C3" stroke="#FFFFFF" stroke-width="0.3965" d="M67.5,280.5l-3-2.5l-3.5-1l0.5-2l7,1.5l-1.5-3
								h-4.5l-4.5-2l2.5-3l-4.5-1l-2,2l-4-2l1-3.5l4,1.5l1-2l5.5,0.5l1.5-2l4-6.5l-5-5l-1.5,4.5l-3,0.5l1-5l-3-3.5l-3-0.5L51,250
								l-6-0.5l-1,4h-1.5l-0.5,2h3.5v2.5l-2,3l-1-3l0,0l-2.5,2.5l-1-2.5l-3-2l-1.5,3l1.5-5l-5-3.5l0.5-3L28,247l-0.5,1.5h-4l-4,2.5
								l-0.5,2.5l2.5,2.5l1,7l-9,6l1,4l-3-0.5L10,274l-0.5,4L9,281.5L8.5,284L6,283.5L3.5,285l1.5,1.5l2.5,2l-0.5,2l5.5,3.5l-0.5,3
								l3,3l-1.5,4.5l2,4l2.5,3h3.5l3,3l2,2.5l3.5-0.5l12.5,4h5V318H47l-2.5-4v-7l-2.5-3v-4.5l6-3l4-0.5l0,0l5.5-3.5l-0.5-4h10.5
								l1-1l-2-1.5l-2,1l-3.5-2L67.5,280.5z"/>
						</g>
						<path id="path2184" fill="#C8E3C3" stroke="#FFFFFF" stroke-width="0.3965" d="M127,278l-0.5-10.5l-2-1.5l4-3.5h3l1.5,3.5
							l0.5-3.5h1.5v3l3.5-4.5l2.5,2.5l6-5l-5-5l2.5,1l0.5-7.5l3,1.5l0.5,3l5.5,0.5v2h4l-0.5-3l-2.5-1.5v-3l2.5,0.5l3-8l3.5,2l-1.5-3
							h3.5l-2.5-3.5l5-3l0.5-3.5l-2-0.5l2-2l5.5,1l3.5,2l1,4.5l4.5,1l1-2.5l4.5,2.5l1.5-3l4,4l6,1l2.5,2.5h2l1.5-3.5l8.5-1l1.5,2.5
							l1.5,0.5l-1.5,4h2l1,3.5l-2,3l2,1.5l-1,2.5l2,3l0.5,3.5l-2.5,0.5v4.5l4,4.5h3.5l1.5,2.5l-1,1.5h-7l-1,1.5v3h-1v3.5l-5,7
							L209,283l-2.5,1.5l-2-2v2.5l-2,2l-0.5,4l2,1l-1,2.5l0.5,1l3-0.5l3,2.5l-2,2.5l3.5,2l-2,2.5h-3l-0.5,2l-3-1l-2-3L200,305h-3
							l-1.5-2l-4,2l-3.5,0.5l-4-2.5l-10,0.5V301l-2.5-3.5H170l-3-3l-4-0.5l-2,1.5l1,4l-0.5,1.5l-5.5-4.5v-2l2-1.5l-1-2.5l-3,2.5
							l-1.5-1.5L150,297l-3.5-7l2.5-3l-0.5-7.5L146,282l-5-0.5l0.5-2.5l-4.5-7.5l-3.5,4l-1.5-2L127,278z"/>
					</g>
					<path id="path3179" fill="#F9D0CF" stroke="#FFFFFF" stroke-width="0.3965" d="M114,367.5V365l5-0.5l-1-2.5l-6.5-1l2-2l-2-1
						l3-1.5l-2-3l8-3l-2.5-4v-3l-5,0.5l-2-5l6.5-4.5l-1-16l5-3.5l-3.5-3.5h-3l4.5-3l5,1l2-4l-0.5-2h3.5L129,306l3,2.5l4,0.5l3.5,0.5
						l4.5-3l0.5-5.5h-2v-4.5l4-5l3.5,6l2-5l2,1l3-3l1.5,2l-3,3.5l6,4.5l0.5-2l-2-2.5l2.5-2.5l4.5,1l3,2.5l3,2.5l1.5,3.5l1.5,1.5
						l-8.5,11.5l-5,6l3,1.5l1,3l2.5,1.5l0.5,9.5l-4,4v2.5l-2.5-0.5l-4.5,9l-3.5,2h-3l-1.5,3.5l-4.5,3.5l-9,2l-2-2l-1.5-0.5l-2,3.5
						v3.5l-6-0.5l-5-1.5l-2,2.5L114,367.5z"/>
				</g>
			</g>
			<path id="path4248" fill="#F9F6C2" stroke="#FFFFFF" stroke-width="0.3965" d="M169,336v-7.5l-2.5-2v-2l-3.5-3l13.5-16.5l-1-2h9
				l3.5,3h3.5l4.5-2.5l4,2l1-3.5l2,4l3.5,1v-2.5h2.5l2.5-2l-4-2.5l2-2l-3.5-3l-3,0.5l-1-0.5l2.5-2.5L202,291l1.5-5.5V282l2.5,2.5
				l3-1l3,3l6.5-7l-1-3l1-5l6,0.5l2,2.5l1.5,1.5l1-2h1.5l2.5,2.5l1.5,0.5l0.5,3l-3,0.5l-0.5,1.5l3,2.5v7.5l-1,4h-3l2.5,3l0.5,3.5
				L231,304l-0.5,3l-2-0.5l-2.5,3l2.5,3.5v4l-3.5,2.5l-1.5,2.5l7,7.5l-3,3l0.5,2l3.5,2.5l2.5,4l-1,14.5l1.5,2L233,359v2l1.5,0.5l2,2
				v1.5l1.5,1.5l-0.5,6l-3.5,7l-6.5,2.5H224l-4-5l-6-4.5h-4.5L203,367l-5-1l-0.5-2.5l2.5-1l0.5-3.5l-2-1l1.5-1v-2l-2-2.5l-1.5,1
				l-4.5,1l-1.5-1V350l2-1c0,0,0-3-2-3c-2,0-2.5,0-2.5,0l-1.5,2.5h-1l-1-3v-4l-4.5-3l-4-1L169,336z"/>
		</g>
		<path id="path5240" fill="#D0D6EC" stroke="#FFFFFF" stroke-width="1" d="M313.428,897.043v-8.76l5.083-8.76l6.354,6.257
			l25.417-5.006l12.709-10.011l2.542-10.011l7.625,2.503l11.438-6.258l7.625-22.524l7.626,3.754l1.271-10.011l10.167-10.011
			l26.688,6.257l8.896,3.754v12.514l3.813,7.509l8.896-5.006l7.626,2.503l-5.084,3.754v10.011l5.084,3.755h11.438l5.084-6.258
			l5.083,8.76l-7.625,6.257h6.354v7.509l-7.626,3.754l2.542,8.76l11.438,1.252l16.521,13.765l11.438-1.251l16.521,13.765
			l8.896,12.514l-12.709,2.503v7.509l-5.083,1.251l1.271,11.263l6.354,7.508l10.167-2.502l5.084,15.017h-5.084l-10.167-11.263
			l3.813,15.017l15.251,2.503l11.438,7.508l-11.438,3.754l-6.354,3.755l-15.251-1.252l-15.25-6.257l-17.793,5.006l-11.438,5.005
			l-30.502-18.771l-5.084-12.514l-15.25-16.268h-6.354l5.083,12.514l-6.354,7.508l-13.979-2.503l-8.896-12.514l-12.709-13.765
			l-5.083-2.503H373.16l-7.625-5.006h-13.98l-7.625-1.251l-10.167,8.76v-6.257l-10.167-3.755l-5.083-10.011l2.542-16.268
			L313.428,897.043L313.428,897.043z"/>
		<path id="path4161" fill="none" stroke="#000000" stroke-width="1" d="M552.355,1015.924L552.355,1015.924z"/>
		<g id="g7076" transform="matrix(2.5417852,0,0,2.5027642,-20.817184,-25.22581)">
			<path id="path3188" fill="#F9F6C2" stroke="#FFFFFF" stroke-width="0.3965" d="M90.5,359H96l5,4.5l7,4l5.5,0.5l5.5,1l2-3.5l4,2.5
				h6.5l3,5.5l-1,4.5l1.5,4.5l2,0.5l2.5,0.5v3l4.5,2l1.5,4l2-2.5l2.5,1.5l3,3.5l7-0.5l-5-4.5l6-1.5l5.5,4l-4,1.5l0.5,3l4.5,3.5l3,2
				l3-0.5l2,1l-0.5,4.5l-0.5,7l-3.5,4l1,2.5h-3.5l-6-4l-1.5-0.5l-1,3h-4.5L153,423l-3-1l-4,3.5l-0.5-4.5h-3l0.5-3l-3.5-1l-0.5,2
				l2.5,3.5l-3.5,1l-0.293,3.384L134,428.5V422l-0.5-4.5l-2-2.5l-2,1.5L127,420l-2.5-6l-4-1l2.5-3l-4.5-1l-3.5-2.5l2-2v-2l-3,0.5
				l-2-1.5l3.5-2l-1.5-4l-2-2.5l-3.5,2l-1.5-5l-1.5-2H104v4l-5.5-6h3l2-1l-3-3l-2.5,0.5l-1.5,1l-0.5-3l3.5-1L95,377l3-1.5l-6-4.5
				L90.5,359z"/>
			<path id="path4163" fill="#C8E3C3" stroke="#FFFFFF" stroke-width="0.3965" d="M174.5,409.5V403l-2.5-2l3-1.5l7,0.5l4,0.5l2.5,3
				v3.5l1,3.5l7.5,4.5l-2-5.5l4-0.5l1,2.5l2.5,1.5l7-4.5l2.5,1.5l-0.5,2.5l2.5,3v-4l11-0.5l5.5,1l3.5,4.5l0.5,5.5l-4.5-3.5l-3.5-4.5
				h-12l-0.5,2h10l5,3.5l6.5,5l2.5,2l2,1l-2.5,1L237,431h-5l-0.5,2.5l-3.5-1v7l4,2.5l-1,2.5h-3.5l-1-2.5l-1,2.5l-5-0.5l-1-6l-6,5.5
				H211l-1-4.5h-2l-1,2l-5-2.5l-1,2l3,2l-3,1.5l-2-0.5V441l-4-0.5l-2-5.5l-5-3.5l-0.5-3l-7-0.5l-1,1.5l-6-5.5l-1-3l-1.5-3l3.5-3.5
				V409.5z"/>
			<path id="path5134" fill="#F9D0CF" stroke="#FFFFFF" stroke-width="0.3965" d="M98,386.5l6,6.5l0.5-5l3,3v3l1.5,2l3-3l3.5,5.5
				l-4.5,3l3,2.5l3-1l1,2l-3.5,1.5v1l-0.5,3l-2.5-1.5l-2,3l0.5,4.5l-4.5,0.5l0.125,9.5l-4.125,4.375l-3.875,0.625l-2.625,2l-2-0.5
				l-6.5,5.5l-1,1.5l-7.25,0.375L79,435l-3.5-1l-1-2l2.5-1.5l1-3.5l-2.5-1l0.5-5.5l2.5-2.5l-3.5-5l2.5,1l3-3v-1l-1.5-1.5l0.5-5.5
				l-1-1l3-1.5l2.5,1v3l1.726-2.205l3.024-0.17L94,396.5l3.25-0.375l1.125-3L97.5,389L98,386.5z"/>
			<path id="path6105" fill="#D0D6EC" stroke="#FFFFFF" stroke-width="0.3965" d="M84.5,440l8.5-6.5l2.5,0.5l2-2.5l4.177-0.914
				l3.47-4.147L105.5,417l3.97-0.561L108.5,412l3-2.5l2.5,2l1.03-4.531l2.47,2.53l5.768,0.5L120,413l4,1.5l1.061,2.323L128,420.5
				l1-2.5l2.5-2.5l2,2.5l0.561,11.353L134,436l-1.5,5.5l-1.291,1.739L128,444v1.5l2,1.5l-0.5,2.5l-5.5-1l-3,1l2.341,0.573L125,453.5
				l-0.5,7l-2.5,1l2.912,1.674L126,465.5l-5.384,4.207L116,469.884l-0.5,4.616H112l-2.853-2.263L106,473.5h-4.5L100,472v-6l1.5-4.5
				l3,1l-0.384-3.323l1.177-2.97L104,454.884l-2.5-0.384l2.177,2.146L100,459.5l-2-2l0.5-2l-1.738-1.616l-3.787-1.899L86.5,447
				l1.5-3.5L84.5,440z"/>
		</g>
		<path id="path7082" fill="#F9D0CF" stroke="#FFFFFF" stroke-width="1" d="M234.632,1157.33l15.25,3.754l7.625-5.005l5.083,6.257
			l10.167,1.251l1.271-13.765l8.896,1.251l16.521-10.011l-1.271-6.258l-10.167-6.257l5.083-2.502l2.542-17.52l-3.813-6.257
			l-6.354-3.755l7.625-3.754l15.251,6.257l1.271-6.257l-5.083-6.257l-1.271-3.754h7.625l10.167-17.52l-1.271-20.022l8.896-3.754
			l3.813-8.76h6.354v-5.006l-6.354-7.508l1.271-5.006l7.625,3.755v6.257l7.625,2.502l1.271,7.509h5.084l5.083-7.509l8.896,3.755
			l6.354-8.76h11.438l3.813-7.509l15.251,10.669l10.167,1.845l1.271,5.006l17.793,15.017l1.271,7.508l-2.542,3.755h-3.813
			l-2.542,5.005l3.813,3.755l1.271,5.005l-3.813,1.252v7.508l5.083,2.503l-1.271,2.503h-6.354l-6.354,10.011l1.271,13.766
			l-1.271,13.765l-3.813,6.258l-5.084,5.005l-6.354-1.251l-7.625,15.017l-1.271,8.76l5.083,1.251l-5.083,3.754v6.257l-6.355,6.257
			l-5.083-5.005l-2.542,3.754l3.813,10.011l-8.896,3.755l-21.605,3.754l-6.354-15.017h-10.167l-5.084-11.263l7.625-5.005
			l-12.709-5.006l-5.083-3.754l-3.813,3.754l7.625,10.011h-12.709l-10.167,5.006l7.625,7.508l7.625,3.755l-10.167,1.251
			l-16.521-5.006l-3.813,1.252l7.625,5.005l-3.813,8.76l-3.813,6.257l-1.271,6.257h-21.605l-12.708-6.257v8.76l-12.709-1.251
			l-2.542-6.257l-10.167-1.252l-6.354-3.754v-6.257l-7.625-5.006v-6.257l2.542-5.005l10.167-2.503l-1.271-6.257L234.632,1157.33
			L234.632,1157.33z"/>
		<path id="path8053" fill="#D0D6EC" stroke="#FFFFFF" stroke-width="1" d="M402.39,1162.336l-6.354-3.754v-6.258l8.896-15.016
			l6.354,1.251l10.167-12.514v-15.017l-1.271-12.514l3.813-10.012h8.896l2.542-3.754l-6.354-1.251v-8.76h3.813v-5.006l-5.084-5.006
			l1.271-5.005l6.354,2.503l2.541-5.006l-1.271-7.509l1.271-3.754l16.522,1.252l2.541,6.257l12.709,10.011l3.813,12.514l5.083,6.257
			v8.76l5.084,6.257l5.083,2.503v5.006h-6.354l-5.083,3.754l1.271,3.754h19.063l10.167,6.257l2.542,8.76h3.813v13.766l8.896,13.766
			l2.542,7.508l-11.438-7.508l-5.083,5.005l6.354,2.503v16.268h-15.251l-6.354,11.263l-6.354,2.503l-8.896-11.263l-5.083,2.503
			l-7.626,10.011l-5.083,2.503h-2.542l-6.354-7.508l-3.813,1.251l-7.626-8.76h-1.271l-2.542,2.503h-6.354l-6.354-5.006l-1.271-7.508
			l-7.625,1.251L402.39,1162.336L402.39,1162.336z"/>
		<path id="path2204" fill="#F9F6C2" stroke="#FFFFFF" stroke-width="1" d="M286.739,1204.883l10.167-17.52l-10.167-8.76h7.625
			l12.709,6.258h13.979l-16.521-12.515l6.354-5.005l17.792,1.251l-8.896-10.011l3.813-6.257l2.542,5.005l15.25,5.006l-6.354,5.006
			l3.813,10.011l11.438,1.251l5.084,15.017l15.25-2.503l16.521-3.754l-5.083-10.011l1.271-5.006l6.354,5.006l7.625-6.257
			l-2.542-7.509l5.084-2.503l16.521,11.263l6.354-1.251l1.271,6.257l7.626,7.508l6.354,1.252l3.813-5.006l6.354,8.76l11.438,3.754
			l-3.813,6.257l6.354,3.755l-3.813,3.754l1.271,15.017l-3.813,5.006l2.542,11.262l-11.438,1.252v3.754l6.354,2.503l1.271,5.005
			l-3.813,1.252l1.271,8.76l11.438-7.509h3.813l-1.271,12.514l7.626,2.503v2.503h11.438l2.542,3.754l-2.542,8.76l7.625,12.514
			c0,0,6.354,8.76,1.271,8.76c-5.084,0-7.626,0-7.626,0l-8.896-2.503l-3.813-3.754l-6.354-15.017l-3.813-3.754l-8.896,6.257
			l2.541,8.76l-7.625,11.262l-16.521,7.509l-1.271,6.257l5.083,6.257l-1.271,16.269l-1.271,5.005l-13.979-6.257v-6.257l-5.084-1.251
			l-1.271,3.754l-11.438,10.011l-7.625-1.251l-11.438,6.257h-7.625l0,0l-8.896-6.257l-1.271,1.251l-5.083-3.754l-1.271-6.257
			l7.625-1.252l-8.896-11.262l7.625,1.251l1.271-3.754l-5.083-8.76l-10.167-6.257l-1.271,7.508h-19.699l-8.261-6.257l-6.354-3.754
			l0,0l5.083,11.888l-5.083,5.006l-19.063-2.503l-5.084-5.631l-6.354,3.754h-5.083l3.813-7.508l-15.251-6.257l2.542-22.525
			l7.625-2.503l-3.813-6.257v-6.257l-5.083-3.754l10.167-16.269l12.709-5.005l-1.271-10.011l12.709-8.76l5.083,3.754l3.813-7.509
			l-5.083-2.502l-1.271-6.257l-11.438,8.759l-6.354-3.754L286.739,1204.883L286.739,1204.883z"/>
		<path id="path2205" fill="#C8E3C3" stroke="#FFFFFF" stroke-width="1" d="M459.58,1204.883l-6.354-8.76l10.167-1.251
			l10.168-10.012l3.813-3.754l7.625,11.263l8.896-3.754l6.354-8.76h13.979l3.813,10.011h10.168l1.271,2.503l-8.896,10.011
			l3.813,7.509h13.98l6.354,7.508v5.006l-3.813,6.257l3.813,1.251l8.896-6.257l10.167,1.252l-1.271,8.759l-3.813,8.76l-5.084,10.012
			h-6.354l-10.167-2.503l16.521,13.765l5.084,7.509l5.084,12.514l13.979,8.76v6.257l-3.813,1.252l-11.438,2.502l-29.23-11.262
			l-10.167,11.262l-16.521-8.76l-5.084,7.509h-3.813l-13.979-16.269l5.083-7.508l-3.813-7.508l-12.709-1.252l-6.354-6.257
			l2.542-10.011l-5.084-1.252l-11.438,11.263l2.542-10.011l-1.271-7.509l-7.625-2.503l13.979-2.502l-2.542-11.263l5.084-5.006
			L459.58,1204.883L459.58,1204.883z"/>
		<path id="path2206" fill="#D0D6EC" stroke="#FFFFFF" stroke-width="1" d="M313.428,1303.742l8.896,11.262l-6.354,7.509
			l-7.625-5.006l-10.167,1.252l-5.083-5.006l-11.438,6.257l2.542,10.011l7.625,8.76l3.813-6.257l5.083,2.503l-1.271,6.257
			l5.083,2.503l-1.271,7.508l-7.625,7.509l5.083,5.006l-5.083,1.251l-1.271,11.263l-7.625-3.754l2.542,11.262l10.167,13.766
			l-11.438,21.273l12.709,8.76l-2.542,7.508l-2.542,10.012l11.438,8.76l-2.542,11.262l7.625,12.514l1.271,13.766l5.083,3.754
			l-11.438,3.755l1.271,7.508l5.083,3.754l-5.083,21.274l12.708,1.251l2.542,10.011l-10.167-2.503v6.257l7.625,8.76l7.625,1.252
			v11.262l8.896,7.509l1.271,16.268l11.438-2.503l-8.896,12.515h-11.438l-1.271,10.011l3.813,12.514l11.438,20.022l-3.813,2.503
			l-1.271,30.033l8.896,11.262l1.271,16.269l1.271,8.76l15.251,7.508l11.438-5.006l7.625,15.017l-2.542,6.258l7.625,7.508
			l-5.083,11.263l-11.438,12.514l15.25,6.257l15.251-3.754l-2.542-6.257h8.896l1.271-7.509l-6.354-3.754l5.084-7.509v-25.027
			l-5.084-2.503l10.803-8.76l8.261-23.775l7.626-7.509l-3.813-11.263l-10.167-18.771l-10.167-20.022l-3.813-8.76l8.896-8.759
			h-21.605l12.709-17.52l6.354-13.766l5.083-31.284l-12.709-20.022v-6.257l7.626-6.257l-12.709-8.76l1.271-23.776l11.438-6.257
			l-11.438-21.273l1.271-28.782l7.625-8.759l6.354,11.262l7.625-10.011l-2.541-6.257l-7.626-1.251l-5.083-5.006l5.083-10.011
			l2.542,5.005l6.354,2.503l2.542-8.76l6.354-3.754l-1.271-6.257l-11.438-18.771l-12.709-6.257l-6.354-11.263l-2.542-3.755
			l-10.167,7.509l-8.896,1.251l-7.625-7.508l-3.813,2.503l-5.083-11.263l7.625-2.503l-11.438-11.263l10.167,2.503l-5.083-15.017
			l-7.625-5.005l-1.271,8.76H331.22L313.428,1303.742L313.428,1303.742z"/>
		<path id="path2208" fill="#D0D6EC" stroke="#FFFFFF" stroke-width="1" d="M335.033,1670.396l-11.438,5.006l2.542,10.012
			l7.625,11.262l-6.354,21.273l1.271,7.509l10.167,2.503l11.438,16.268l10.167,1.252l3.813-7.509l-1.271-7.509l-5.084-6.257
			l-8.896-1.251l-8.896-7.508l1.271-21.274L335.033,1670.396L335.033,1670.396z"/>
		<path id="path3186" fill="#F9D0CF" stroke="#FFFFFF" stroke-width="1" d="M427.173,1393.216l-4.448,1.877l-1.906,9.386
			l-6.354-3.129l-2.542-6.883l-6.99,11.263l5.084,5.632l8.261,0.625l3.177,7.509l-7.625,10.011l-6.354-10.637l-8.261,7.508
			l-0.636,26.905l12.073,23.776l-12.073,6.257l-1.271,23.15l12.073,9.386l-6.99,4.379l-0.635,6.883l13.344,21.273l-5.719,30.033
			l-17.792,31.91l20.97-0.625l-8.262,8.76l22.241,46.926l5.083,12.515l8.261,2.503l0.636,8.134l-13.345,2.503l-10.167,16.894
			l5.72,5.005l3.813,11.263h5.719l1.906,10.011l3.813,12.515l15.887,1.251l9.531-14.391l5.084-3.129l5.083-9.385l-2.541-5.632
			l-3.178-7.508l-12.073-7.509l9.531-5.006l17.157-17.519l1.271-13.766l0.635-15.643h5.084l8.896-32.535l0.635-25.653l-5.719-23.776
			l17.157-16.894l3.813-8.135l5.719-1.251l7.626-12.514v-15.643l-11.438-33.161l-6.354-3.129v-15.017l-8.896-18.771l-2.541-21.273
			l5.083-11.889l10.167-10.011l6.354-21.899l5.084-4.38l4.448,3.129l9.531-9.386l4.448-8.76l-1.906-10.011l-3.813-3.754v-8.134
			l13.345-0.626l8.261-6.883l5.083-26.279l-29.23-10.011l-12.709,11.263l-14.615-8.76l-6.354,8.134l-6.354,3.754l-14.615-1.877
			l-5.719-3.754l-10.167-19.396l-9.532,3.754l3.178,10.012l-9.532,11.262l-15.886,7.509l-1.906,5.005l5.083,5.632l-1.271,24.401
			l-14.615-6.882l1.271-6.257l-5.719-2.503l-0.636,4.38l-11.438,10.011l-8.261-1.251l8.897,15.016l12.708,5.632l9.532,16.268
			L427.173,1393.216L427.173,1393.216z"/>
		<path id="path4157" fill="#F9D0CF" stroke="#FFFFFF" stroke-width="1" d="M415.099,1722.955l-2.541,22.524l13.979,8.76
			l3.813-13.765L415.099,1722.955L415.099,1722.955z"/>
		<path id="path5128" fill="#F9F6C2" stroke="#FFFFFF" stroke-width="1" d="M475.241,1076.744l8.088,1.77l0.898,6.193l5.393,2.654
			l8.088-4.424l-8.986-5.31l3.594-4.424l13.48,5.31l1.797-5.31l4.493,0.885l2.696,10.618l7.189,0.885l14.378-14.157l2.696,15.042
			l12.581,1.77l2.696-7.078l3.595,6.193l8.088,0.885l3.595-6.193l-10.784-5.31v-20.352l8.986,3.539l1.798-6.193h12.581l0.898-6.194
			h2.696l7.188,1.77l2.696,7.079l26.062,5.31l8.986,10.618h7.189l4.493,10.618l27.858,4.424l16.176,11.504l8.088,14.157
			l0.898,16.813h-7.189l-0.898,13.272l-7.189,6.194l9.886,6.194l-4.493,11.503l-5.393,16.813l-6.29-2.654l-9.886-6.194
			l-4.493,12.388l-4.493-0.885l-0.898-6.193h-5.393l-6.29-9.733l-8.088-0.885l6.29,7.963l-7.188,0.885l-9.886,6.194l-0.898-9.733
			h-8.088l-5.393,4.424l-4.493-7.078l-8.088-0.885l-15.276,15.042l-20.67,0.886l-1.797,5.309l8.088,4.424l-0.898,4.425l-2.696,4.425
			l-11.683,9.733h-8.986l-4.493-5.31h-13.48l-4.493-7.964l8.987-9.733l-11.683-2.654l-2.696-9.733v-16.813l-6.291-4.425l5.393-5.309
			l14.378,10.618l-5.392-9.733l-9.886-15.043l0.899-12.388h-2.696l-4.493-7.964l-7.189-6.194l-21.567-0.885l-0.898-3.539
			l5.392-4.425h6.29l0.899-3.539l-9.886-8.849L475.241,1076.744L475.241,1076.744z"/>
		<path id="path6099" fill="#D0D6EC" stroke="#FFFFFF" stroke-width="1" d="M577.688,1298.844l0.898-5.31l-12.581-7.079
			l-6.291-15.927l-17.973-17.697l12.581,0.885l7.189-17.697l1.797-9.733l-8.986-3.539l-10.784,7.963l-1.797-1.77l2.695-7.964v-4.424
			h5.393l16.176-10.618l1.797-7.964l-8.986-5.31l1.797-6.193l17.075,0.885l17.074-14.158l8.088,0.885l6.291,5.31l5.392-4.425
			l6.291,0.885l1.797,9.733l8.088-5.309l9.885-0.885l-5.392-9.733l5.392,0.885l7.189,10.618h4.493l2.696,7.079h3.595l3.595,13.272
			l-4.493,15.043l-11.683,6.193c0,0,3.595,7.964,0,7.964s-11.683,0-11.683,0l-5.392,19.467l10.783,6.194l4.493-7.964l6.291-3.539
			l11.683,7.078l4.493,4.425l9.886-8.849l11.682,6.194l-4.493,3.539l-0.898,8.849l11.683,3.539l-4.493,1.771v11.503h-9.886
			l-3.594,7.964l-10.784,4.424v7.964l-3.595,0.885v4.425l-7.189,5.309l-3.595,14.158l-3.595,5.31l-0.898,3.539l-8.986,1.77h-12.581
			l-1.798,9.733h-2.695l-9.886-6.194l-14.378,0.885l-12.582-7.078l-1.797-6.194l8.088-7.079l-13.479-8.849L577.688,1298.844
			L577.688,1298.844z"/>
		<path id="path7070" fill="#F9F6C2" stroke="#FFFFFF" stroke-width="1" d="M563.31,1303.268l14.379-5.309l-1.798,15.928
			l14.379,5.309l-8.986,8.849l1.797,8.849l12.581,8.849l16.176-5.309l10.784,12.388l1.797,24.776l-12.581,5.309l-7.189,3.54
			l-1.797,12.388h17.973l3.595,3.539v19.468l7.189,17.697l-5.392,8.848l7.189,23.007l-14.379-7.079l-10.784-5.309l-3.594,3.539
			l19.77,14.158v5.309h-5.392l-8.986,10.618v23.007l-10.784,17.697l-3.595,10.618l-1.797,21.236l10.783,15.928l3.595,19.467
			l-14.378,19.467l5.392,12.389l-1.797,23.006l7.189,19.467v10.618h-7.189v10.619l-25.163,15.927l-8.986-7.078l-21.567-1.771
			l-12.581,3.54l23.364,17.697l-5.392,10.618h-19.771l-14.378-3.539l8.986,17.697l-12.581,3.539l-14.379-5.31l5.392-12.388
			l-10.783-15.928v-14.157l-1.798-14.158l3.595-28.315l-3.595-15.928l8.987-24.775l1.797-30.086l-7.189-26.546l21.568-17.697
			l12.581-8.849l3.595-28.315l-14.379-28.315l-5.392-5.309v-12.389l-8.987-17.697l-3.594-23.006l16.176-26.546l7.188-21.236h10.784
			l12.581-14.158v-12.388l-7.189-5.31v-10.618l19.771,1.77l5.393-14.158L563.31,1303.268L563.31,1303.268z"/>
		<path id="path8041" fill="#F9D0CF" stroke="#FFFFFF" stroke-width="1" d="M529.479,541.65l17.792-18.771l-1.271-11.263
			l8.896-10.011l8.896,1.251l7.626-10.011l-1.271-12.514l-6.355-11.263v-21.273l12.709-8.76l-6.354-3.754v-8.76l13.979,10.011
			l-3.813,20.022l7.625,7.508l-1.271,10.011l8.896,6.257h8.896l6.354-8.759l11.438,2.502l7.625-1.251v18.771l-2.542,2.503
			l-7.625-5.006l-3.813,17.52l-7.626,7.509l3.813,8.76l10.167-1.252l-1.271,6.257l-5.083,6.257l-1.271,10.012l11.438,8.759
			l-1.271,7.509l-8.896,5.006l1.271,5.005h-6.354v6.257l6.354,12.515l1.271,7.508l7.626-1.251l6.354,7.508l-2.542,7.509l8.896,3.754
			l29.23,7.508l2.542,8.76l16.521-13.765l24.146,11.262l-1.271,15.017l-11.438,12.514l-8.896-1.251h-20.335l-11.438,2.503
			l-19.063,22.524l-6.354-8.759l-2.542-3.755l-8.896-3.754v7.509l-10.167,6.257l-5.083-3.755l-3.813,7.509l3.813,7.508l7.625,5.006
			l-2.542,5.006l-3.813-1.252l-5.083,11.263h-6.354v8.76l-7.626,2.503v13.765l-6.354,2.503l-10.167-1.251v-11.263l-7.625-6.257
			l10.167-1.252l3.813-26.278l-10.167-11.263l7.625-1.252l1.271-8.759l-11.438-7.509l-5.084-1.251l-2.541,5.005l-7.626-8.76h3.813
			l2.541-6.257l-1.271-6.257l-8.896,1.252l-10.167-11.263l-1.271-10.011l6.354-1.252l-1.271-11.263l-5.083-6.257l1.271-6.257
			l-5.084-5.005l5.084-5.006v-11.263h-8.896l7.626-8.76l-6.354-3.754l3.813-8.76L529.479,541.65L529.479,541.65z"/>
		<path id="path2215" fill="#C8E3C3" stroke="#FFFFFF" stroke-width="1" d="M573.961,924.573l10.167-16.268l-1.271-15.017
			l-5.083-11.263l-7.626-2.503v-5.006l3.813-3.754l-3.813-5.006l2.542-15.017l1.271-22.524l-17.793-18.771l8.896-11.263
			l-17.793-16.268l11.438-12.515l2.542-15.017l-8.896-7.508l8.896-6.257l3.813,2.503l6.354-10.012l11.438,3.755l1.271-6.257
			l5.083-8.76l3.813-6.257l2.542-6.257l5.084-3.755l6.354-8.76l6.354,1.252v-5.006l-8.896-7.508l-1.271-6.257l1.271-6.257
			l3.813,5.005l12.709-7.508l1.271-7.509l7.626,3.755l10.167,13.765l15.251-22.524l12.709-5.006l7.625,3.754l1.271,11.263h11.438
			v21.273l10.167,15.017v6.257l-6.354,8.76l-1.271,7.509l8.896,20.021l26.689,16.268l-6.354,2.503l-3.813,8.76l11.438,20.022
			l1.271,8.76l-3.813,6.257l8.896,22.524l8.896,3.755l6.354,2.502l2.542,3.755l-10.168,5.005v11.263l-7.625,2.503l-6.354,5.006
			l-5.084,13.765l1.271,18.771l-8.896,1.252l-5.083-5.006l-1.271,6.257h-3.813l1.271,8.76l-13.979,13.766l-10.167,6.257h-3.813
			l-11.438-7.509l-7.625,7.509h-3.813l-7.626-5.006v8.76l-6.354,6.257l-2.542-10.011l-5.083-2.503l-11.438,12.514l-7.625,2.503
			l-6.354,6.257l-3.813-7.509l-5.084,8.76h-7.625l-7.625-6.257l-2.542,3.754l-5.084-7.508L573.961,924.573L573.961,924.573z"/>
		<path id="path3189" fill="#F9D0CF" stroke="#FFFFFF" stroke-width="1" d="M572.689,925.824l-20.334,6.257l-12.709,1.252
			l1.271,12.514l11.438,13.766l15.25,13.765l1.271,7.509l5.084,6.257l-1.271,12.514l13.979,18.771l15.251,10.011l15.251,3.755
			l6.354,7.508h-13.98l10.168,10.012l6.354-3.755l6.354,12.515l22.876,6.257l7.625-6.257v-13.766l16.521-2.503l11.438-5.006
			l29.23,5.006l-7.626-21.273l12.709-13.766l-25.417-5.005l-8.896-11.263l-6.354-13.766l-8.896-5.005l-6.354-16.269l-12.709-6.257
			l10.167-8.76l-24.146-1.251l-2.542-10.011l-6.354-2.503l-12.709,12.514l-3.813-2.503l-8.896,10.011l-3.813-6.257l-5.083,11.263
			l-7.626-2.503l-6.354-5.005l-3.813,5.005l-5.084-7.508L572.689,925.824L572.689,925.824z"/>
		<path id="path4160" fill="#D0D6EC" stroke="#FFFFFF" stroke-width="1" d="M655.298,1064.729l6.354-7.509v-12.514l21.605-2.503
			l7.625-5.006l27.96,6.258l-6.354-22.525l12.709-11.263l-21.605-6.257l-6.354-1.251l-12.709-23.776l-10.167-5.006l-3.813-16.268
			l-13.98-8.76l10.167-7.508l-21.604-2.503l1.271-6.257v-7.509l10.167,7.509l11.438-8.76l15.251,7.508l11.438-5.005l7.625,12.514
			l10.168-5.006l10.167-2.503l3.813,6.257l6.354-18.771l11.438,17.52l-10.167,8.76l8.896,2.502l19.063,2.503l1.271,23.776
			l10.167-2.503l6.354,6.257h8.896l6.354-5.005h6.354l1.271,10.011v8.76l-2.541,7.509l11.438,32.535l5.084,5.006l-5.084,2.503
			l-21.605,10.011l8.896,15.017l-3.813,13.766l-11.438-10.012l-3.813,6.258l-3.813,16.268l-8.896-2.503l5.084-15.017l-11.438-6.257
			l-6.354-7.508l-19.063-3.755l-7.626,11.263l-1.271,6.257l-1.271,17.52l-6.354,7.509l-8.896-5.006l-1.271,10.011l-3.813,6.257
			l-12.709-6.257l-1.271-11.262l-3.813-12.515l-10.167-6.257L655.298,1064.729L655.298,1064.729z"/>
		<path id="path5131" fill="#F9F6C2" stroke="#FFFFFF" stroke-width="1" d="M791.568,1280.262l-17.973,5.309l-10.784,7.079
			l-3.595,8.849l-12.272-9.152l-9.295-12.084l5.392-10.618l7.189-10.618l-10.784-10.619l-8.986-15.927l-12.581-8.849l-5.393-23.007
			l16.176-12.388l12.582-23.007l10.783-15.927l17.974,1.77l16.176,12.388l7.188,12.388h14.379h12.581l5.393,12.389l1.797,12.388
			l5.392,19.467l-7.188,15.928l-10.566,8.026l6.881,10.707l-23.274,6.043L791.568,1280.262L791.568,1280.262z"/>
		<path id="path6102" fill="#F9D0CF" stroke="#FFFFFF" stroke-width="1" d="M688.341,1128.549l16.521,1.251l10.167,8.76
			l11.438,5.006l25.418,7.508l-5.084,8.76l-17.792,28.782l-16.521,11.262l3.813,22.525l15.25,11.262l7.626,17.52l12.709,8.76
			l-13.98,18.771l10.167,8.759l3.813,7.509l-6.354,5.006h-13.98l-15.25-3.755l1.271-16.268l1.271-15.017l-6.354-2.503l-3.813,6.257
			h-16.521l-10.167-6.257v-5.006l6.354-2.503l-11.438-7.508l-10.167,8.76l-12.709-10.011h-7.625l-7.626,10.011l-11.438-7.508
			l7.625-18.771l15.251,1.252l-2.542-7.509l11.438-6.257l3.813-16.268l-6.354-11.263l6.354-12.514l17.792,7.508l6.355-26.279
			l-5.084-10.011l6.354-5.006V1128.549L688.341,1128.549z"/>
		<path id="path7073" fill="#F9F6C2" stroke="#FFFFFF" stroke-width="1" d="M812.889,1258.692l-10.168,1.469l-6.354,11.752
			l5.083,10.283l13.979-1.469l10.168,11.752l5.083-7.345l-2.542-13.222l-5.083-8.813L812.889,1258.692L812.889,1258.692z"/>
		<path id="path2229" fill="#F9D0CF" stroke="#FFFFFF" stroke-width="1" d="M685.799,928.327l20.335-17.52l-2.542-10.011h5.083
			v-7.508l7.626,7.508l7.625-1.251l-1.271-21.273l3.813-13.766l17.792-7.508l-2.541-11.263l11.438-5.006l-3.813-3.754l7.625-2.503
			l8.896-1.251l3.813-7.509l7.626,8.76l7.625-1.251l5.084,3.754l3.813-21.273l12.709-1.252l3.813,5.006l15.251,6.257v6.257
			l10.167,10.012h11.438l2.542-3.755h10.167l13.98,8.76l7.625,3.754l-7.625,5.006l1.271,11.263l5.084,10.011l-3.813,8.76
			l-1.271,7.509l7.625,7.508l-13.979,2.503l-5.083-5.006l-3.813,3.754l5.084,2.503l2.542,23.776l-6.354,15.017l-6.354,1.252
			l3.813,6.257l-7.625,12.514l-10.168,7.508l-6.354-5.005l-12.709-15.017l-1.271,6.257l-7.625-1.252l-10.167,21.273l-6.354-5.005
			l-5.084,3.754l-10.167,2.503l-7.626-7.509l-10.167,2.503V948.35h-17.792l-10.167-3.754l8.896-10.012l-6.354-10.011l-3.813-1.252
			l-7.625,13.766l-3.813-7.509l-10.167,5.006l-8.896,5.006L685.799,928.327L685.799,928.327z"/>
		<path id="path3201" fill="#F9F6C2" stroke="#FFFFFF" stroke-width="1" d="M669.277,630.498l-1.271-8.759l-20.335-5.006
			l-17.792-6.257l2.542-7.509l-6.354-7.508l-6.354,1.251l-1.271-7.508l-6.354-8.76l-3.813-10.011l8.896,1.251v-6.257l7.625-5.006
			l1.271-6.257l-8.896-7.508l-2.542-8.76l6.354-7.509l1.271-10.011l-10.168,1.251l-3.813-7.508l10.167-7.509l2.542-17.519
			l5.084,6.257l5.083-5.006v-18.771l8.896,7.508l12.709,7.509l6.354,3.754l16.521,6.257l13.979,3.754l19.063,2.503l13.98,6.257
			h8.896l3.813,6.257v11.263l1.271,13.766l-2.542,8.759l15.251,7.509l-5.084,8.76l-12.709-2.503l-8.896,12.514l7.626,6.257
			l-5.084,7.509l3.813,10.011l8.896,5.006l-5.083,2.503l-7.626-2.503l1.271,6.257l6.354,5.006l-6.354,12.514l-16.522-1.252
			l-10.167-5.005l-13.979-6.257L669.277,630.498L669.277,630.498z"/>
		<path id="path4172" fill="#D0D6EC" stroke="#FFFFFF" stroke-width="1" d="M745.531,836.977l-11.438-5.006l-10.167-21.273
			l5.084-5.006v-12.514l-12.709-18.771l2.542-8.76l8.896-2.503l-19.063-10.011l-7.625-7.508l-10.167-17.52l1.271-7.509l7.626-8.76
			v-6.257l-11.438-16.268l1.271-21.273l-11.438-1.251l-3.813-10.012l12.709-2.503l11.438,2.503l11.438-13.765v-12.515l6.354-3.754
			l8.896,2.503l8.896-11.263l-8.896-6.257v-7.508l7.626,2.503l7.625-1.252l-10.167-5.006l-5.084-11.262l5.084-7.509l-6.354-6.257
			l8.896-12.514l12.709,5.006l5.083-10.012l-10.167-3.754l-5.083-6.257v-6.257v-25.027l-1.271-5.006l6.354-1.251l6.354,5.005h11.438
			l3.813,7.509l26.688,5.005l12.709-5.005l15.251-6.257l16.521,2.503l6.354-3.755l10.167,5.006l8.896-7.508l6.354,3.754
			l-2.542,6.257l-6.354,17.52l-1.271,10.011l-6.354,5.006l10.167,11.262l-1.271,7.509l-8.896,1.251l-5.084,7.509l-2.542,10.011
			l-5.083,1.252l-5.084-13.766l-3.813,5.006l-7.625-2.503l-3.813,2.503l10.168,7.508l2.541,10.011l-2.541,7.509h2.541l6.354,12.514
			h8.896l-1.271,13.766l6.354,5.005l-3.813,5.006h8.896l8.896,7.508l12.709,2.503l5.084-3.754l11.438,3.754l-2.542,7.509
			l-6.354-1.252l2.542,8.76l5.084,2.503l2.542,2.503l-6.354,7.508l-1.271,12.514l10.167,8.76l8.896,5.006l2.542,16.268l7.625-5.005
			l1.271,5.005l10.167,6.257l2.541,5.006l-7.625,12.514l-8.896,8.76l-8.896-3.754l-5.084-8.76l-7.625,15.017l-5.084-10.011
			l-7.625,13.765l-10.167,1.252l-8.896-7.509h-11.438l-3.813,10.011l11.438,8.76l12.709,7.509l-1.271,16.268l-6.354,5.006
			l-1.271,11.263l6.354,13.765l3.813,7.509l-8.896-2.503l-11.438,5.006h-12.709l-10.167-7.509l1.271-7.508l-17.793-6.257
			l-1.271-5.006l-12.709-1.252l-5.083,20.022l-5.084-2.503l-6.354,2.503l-7.625-8.76l-3.813,7.509L745.531,836.977L745.531,836.977z
			"/>
		<path id="path5143" fill="#F9F6C2" stroke="#FFFFFF" stroke-width="1" d="M880.246,851.993l-13.98-12.514l-3.813-13.766
			l-2.542-7.508l-1.271-10.012l8.896-5.005l1.271-16.269l-25.418-17.519l3.813-5.006v-6.257l10.167,1.251l10.168,8.76l8.896-1.251
			l8.896-12.514l6.354,6.257l5.084-12.514l10.167,8.76l11.438-5.006l8.896-12.514l6.354-10.012l27.96-5.005l-17.793,2.503
			l13.979-2.503h16.522l8.896,2.503l12.709-8.76l12.709,2.502l5.084,8.76l13.979-8.76l7.625-6.257h13.98l-2.542,10.012
			l11.438,12.514v8.76l-3.813,6.257l-1.271,3.754l-17.793,10.011l10.168,2.503l2.541-3.754l8.896,2.503l5.084,10.011l-1.271,6.257
			l-8.896,5.006l12.709,8.76l2.541,7.508l-8.896,1.252l-3.813,5.005l6.354,5.006v5.006v2.502l-8.896,2.503l-15.251,1.252
			l-3.813,6.257l7.625,3.754l2.542,5.006l-6.354,3.754l-15.251,3.754l-15.251,3.754l-3.813,10.012l-16.521-1.252l-12.709,12.514
			v3.755l7.625,8.76l10.168,2.502l2.541,8.76l-2.541,6.257l-6.354,5.006c0,0,7.625,3.754-1.271,6.257
			c-8.896,2.503-11.438,3.754-11.438,3.754l-6.354-6.257l-3.813-8.76l-11.438,1.252l-7.625-8.76h-10.168l-1.271-10.012l7.626-6.257
			l-15.251-3.754l-3.813-10.011l-8.896-1.252l-6.354-12.514l-7.625-7.508l-3.813,1.251l-2.541,2.503L880.246,851.993
			L880.246,851.993z"/>
		<path id="path6116" fill="#C8E3C3" stroke="#FFFFFF" stroke-width="1" d="M927.269,734.363l-10.167-3.754l-1.271-8.76
			l-8.896,3.754l-2.542-12.514l-11.438-6.257l-6.354-8.76l-1.271-12.514l8.896-8.76l-11.438-6.257v-7.509l5.084,1.252l5.084-7.509
			l-13.98-5.006l-2.541,5.006h-12.709l-8.896-8.76H843.39l5.084-6.257l-5.084-5.005v-12.515l-8.896-1.251l-5.084-13.766h-3.813
			l1.271-5.005l-1.271-11.263l-11.438-7.508h13.98l2.541-6.258l5.084,15.017h6.354l2.542-11.262l3.813-6.257h6.354l5.084-10.012
			l-11.438-11.262l7.625-3.755l-2.542-7.508l5.084-8.76l6.354-15.017l10.167,1.251l3.813,3.755l21.605-13.766l7.625,11.263
			l33.044,1.251l3.813-3.754l10.167,5.006l16.521-13.766l1.271,6.257l-3.813,1.251l-1.271,23.776l5.084,5.006l-2.542,2.503
			l-7.626,1.251l-2.541,6.257l10.167,2.503l-5.084,6.257l-1.271,12.514l6.354,11.263v17.52l15.25,3.754l10.168,10.011l24.146,1.252
			l6.354,10.011v11.263l5.084,10.011l5.083-10.011l6.354-1.251l5.084,8.759l-3.813,10.012l-8.896,2.503V676.8l6.354,3.754
			l7.625,1.251l10.167,3.755l5.084,6.257l3.813,5.005l-7.625,8.76l-10.168,7.509l-13.979,1.251l-21.604,13.766l-3.813-6.257
			l-15.25-3.754l-11.438,7.508l-8.896-1.251l-17.792,1.251H942.52L927.269,734.363L927.269,734.363z"/>
		<path id="path2226" fill="none" stroke="#000000" stroke-width="1" d="M1058.171,740.62L1058.171,740.62z"/>
		<path id="path2228" fill="#F9D0CF" stroke="#FFFFFF" stroke-width="1" d="M1049.274,724.352v-10.011l17.792-15.017l-7.625-12.514
			l-16.521-5.006l-8.896-5.005l2.542-11.263l7.625-3.754l3.813-8.76l-5.084-8.76l-3.813-2.503l-8.896,12.514l-5.084-8.76
			l1.271-10.011l-7.626-11.263l-21.604-2.503l-8.896-11.262l-17.793-2.503v-16.269l-5.083-11.262v-13.766l6.354-6.257l-12.709-3.754
			l2.542-5.006l12.709-1.251l-6.354-7.509l2.541-23.776l2.542-6.257l20.335-3.754h13.979l17.792,3.754l34.314-6.257l31.772,16.269
			l5.083-6.257l15.251,5.005l16.521,10.012h11.438l5.084-5.006l8.896,2.503l19.063-10.012v10.012l6.354,1.251l3.813,7.509
			l19.063-5.006l7.625,1.251l-2.541,7.509l10.167,8.76l1.271,11.263l-6.354,7.508v3.754l13.979,13.766l-1.271,5.006l-3.813,1.251
			v3.754l7.625,3.755v10.011l-7.625,15.017v3.754l7.625,10.011l-12.709,2.503l-6.354,7.509l7.626,16.268l-7.626,2.503l7.626,11.263
			l-11.438,22.524l-19.063-2.503l-1.271,6.257l3.813,3.755l-5.083,3.754l-5.084-6.257h-10.167l-16.521-3.754l-5.084,5.005
			l5.084,5.006l-8.896,7.508l-17.793-13.765l-1.271-7.509l-10.167-1.251l-11.438,10.011l-11.438,6.257l1.271,10.012l-2.541,6.257
			l-7.626-5.006l-11.438,10.011l-10.167,2.503L1049.274,724.352L1049.274,724.352z"/>
		<path id="path2230" fill="#D0D6EC" stroke="#FFFFFF" stroke-width="1" d="M1204.323,701.827l13.979-23.776l-8.896-11.263
			l7.625-1.251l-6.354-17.52l8.896-7.508h10.167l-10.167-12.514l8.896-15.017l1.271-12.515l-10.167-6.257l6.354-6.257
			l-12.709-15.017v-5.005l5.083-5.006V550.41l-10.167-8.76l1.271-6.257l-7.625-6.257l3.813-6.257h3.813l11.438,3.754l7.626-8.76
			l38.126,1.251l22.876-3.754l8.896,7.509l7.626-10.012h20.334l13.979,5.006l11.438,13.766l5.083-1.252l5.084,3.755l5.084-2.503
			l8.896,5.005v6.257l6.354,1.252l15.251,7.508l10.167,2.503l3.813-3.754h5.084v10.011l13.979,3.755l12.709,7.508l-2.541,7.508
			l5.083,11.263l11.438,3.755l-5.084,6.257l11.438,1.251l5.083,7.508l-1.271,18.771h-5.084l-5.083-2.503l-7.626,7.508l-15.25-1.251
			l-21.605-3.754l-12.709,3.754l-10.167,6.257l8.896,10.011l-1.271,8.76l-11.438,21.273h-8.896l-19.063,2.503l-5.084-10.011h-6.354
			l-1.271,8.76l-5.083,16.268l-12.709,10.011l-6.354,2.503l-15.251,3.754l-6.354-5.005l-7.625,5.005l-8.896-1.251l-3.813-6.257
			l-8.896,5.006l-6.354-6.257l-7.625,8.759l-10.167,13.766l-20.335,1.252l-3.813-8.76l-12.709-1.252l5.084-7.508L1204.323,701.827
			L1204.323,701.827z"/>
		<path id="path3203" fill="#C8E3C3" stroke="#FFFFFF" stroke-width="1" d="M1036.565,845.736l7.625-2.503l-5.083-7.509
			l-5.084-2.502l2.542-7.509l15.251,1.252l8.896-3.755v-8.76l-5.084-6.257l8.896-2.502l-1.271-7.509l-8.896-10.011l5.083-6.257
			l1.271-8.76l-2.542-5.006l-6.354-3.754l-7.625,3.754l-8.896-3.754l17.792-6.257l6.354-17.52l12.709-8.76l8.896-8.76l8.896,10.012
			l3.813-7.509l-3.813-8.76l8.896-12.514l16.522-5.006h6.354l8.896,7.509l10.167,15.017l6.354-10.011v-3.755l6.354-5.005
			l5.084,2.502l20.334-2.502l5.084,11.262l6.354-2.502l-5.084-6.257v-6.258l16.521,2.503l15.251,3.755l-7.625,11.262l12.709,1.252
			l2.541,6.257l-8.896,10.011l-8.896-6.257l-7.625-1.251l-3.813,2.502l7.626,12.514l7.625,5.006h-7.625l-8.896,6.257l-2.542,20.022
			l-2.542,36.29l7.626,21.273l-7.626,21.273l-5.083,3.754v3.755l6.354,5.005v5.006l-5.084,2.503v26.278l-16.521,10.012
			l-17.793,2.503l-11.438-8.76h-13.98l-12.708-6.257h-11.438l-2.542,7.508l7.626,10.011l-2.542,8.76l-6.354,8.76l-3.813,12.514
			l-19.063-5.005v-8.76l3.813-2.503l-2.542-10.011l-10.167-21.273l12.709-3.755l-10.167-5.005v-15.017l13.979,3.754v-7.509
			l-11.438-5.005l17.792-12.514v-7.509l-11.438-2.503l-11.438,20.022l-10.167-7.509L1036.565,845.736L1036.565,845.736z"/>
		<path id="path4174" fill="#F9F6C2" stroke="#FFFFFF" stroke-width="1" d="M1187.802,854.496l8.896-23.776l-8.896-20.022
			l6.354-57.563l7.625-5.006l13.98,1.252l-10.168-5.006l-12.709-15.017l6.355-3.754l8.896,1.251l8.896,8.76l7.625-10.011
			l19.063,1.251l20.334-25.027l6.355,6.257l7.625-3.754l3.813,6.257l12.709,1.251l5.084-5.005l5.083,5.005l17.793-3.754
			l17.792-10.011l6.354-26.279h6.354l3.813,10.011l17.793-3.754h12.709l-2.542,8.76l-3.813,8.76l-8.896,16.268l-3.813,22.525
			l-19.063,12.514l-2.542,22.525l6.354,8.759v7.509l-8.896,17.52H1327.6l-25.418-3.754l-10.167,2.502l10.167,8.76l2.542,10.012
			l-6.354,2.502l-2.542-6.257l-1.271-5.005l-7.625-1.252l-8.896,8.76l5.083,5.006v27.53l-6.354,7.508l-2.541,25.028h-8.896
			l-6.354-13.766l-10.167-8.76l5.083-5.005l-10.167,2.502h-11.438l-3.813-7.508l-7.625,1.251h1.271v23.776l5.084,7.509l-6.354,5.005
			l-6.354-2.502l-3.813-6.257l-11.438-7.509L1187.802,854.496L1187.802,854.496z"/>
		<path id="path2231" fill="#D0D6EC" stroke="#FFFFFF" stroke-width="1" d="M840.848,972.126l12.709-11.263l5.084-7.508l-5.084-8.76
			h7.626l5.083-13.766v-13.766l-2.542-12.514l-6.354-3.754l5.083-3.754l6.354,7.508l11.438-2.502h3.813l-7.625-8.76l3.813-16.269
			l-3.813-8.76v-12.514l5.083-5.005l7.625,1.251l8.896-7.509l11.438,18.771l8.896,3.754l6.354,10.011l12.709,5.006l1.271,3.754
			l-7.626,3.755l6.354,7.508l-8.896,2.503l13.979-1.252l7.625,8.76l11.438-3.754l2.542,12.514l7.625,3.754l-2.542,3.755
			l-7.625,12.514l3.813,11.262l-6.354,2.503l-7.625,20.022l-5.084,3.754l-2.542,6.257l-1.271,2.503l-16.521-1.251l-8.896,3.754
			h-7.625v-2.503l-8.896-1.251l-3.813,2.502l-1.271,16.269l-7.625,12.514l-11.438-10.011l-1.271-6.257l-2.542,8.76l-10.167-2.503
			l-3.813-3.755l7.625-3.754l-3.813-8.76l-8.896,3.755l-2.541,6.257l-3.813-7.509l8.896-12.514L840.848,972.126L840.848,972.126z"/>
		<path id="path3204" fill="none" stroke="#000000" stroke-width="1" d="M797.638,1083.499L797.638,1083.499z"/>
		<path id="path3206" fill="#F9F6C2" stroke="#FFFFFF" stroke-width="1" d="M797.638,1063.477l-11.438-17.52l29.23-10.011
			l-15.25-36.29l3.813-8.76v-11.263l8.896-23.776l7.625,2.503l1.271-6.257l15.25,18.771l17.793,7.509l-8.896,8.76l2.542,7.508
			l13.979-8.76l5.084,6.257l-8.896,8.76l12.709,3.755l15.251,5.005l-1.271,5.006l-3.813,11.263l-8.896,7.508l-2.542,11.263
			l-8.896-2.503h-6.354l-2.542,8.76v12.514l-16.521,7.509l-6.354,6.257l-6.354,7.508l-10.167-1.251v-7.509l-8.896,6.258
			l-7.625-6.258L797.638,1063.477L797.638,1063.477z"/>
		<path id="path4177" fill="#F9D0CF" stroke="#FFFFFF" stroke-width="1" d="M906.935,1045.957l-15.251-6.257v-3.754l-12.709-10.011
			l3.813-10.012l11.438-13.765l1.271-17.52l8.896-5.006l3.813,5.006h11.438l3.813-3.755l21.605,2.503v-8.76l7.625-2.502
			l5.084-21.273l10.167-2.503l-6.354-11.263l11.438-16.268l13.98-6.257l-1.271-5.006l7.626-7.509l-2.542-12.514l-7.625-1.251
			l-7.626-13.766l10.167-12.514l17.793,2.503l6.354-10.011l21.605-7.509l21.604,6.257l11.438,7.509l13.979-20.022l10.167,2.503
			v7.508l-16.521,11.263l10.167,6.257v6.257l-12.708-3.754l-1.271,15.017l7.625,5.006l-8.896,2.503l6.354,20.021l6.354,8.76v3.754
			l-5.083,2.503v10.011v3.755l-13.979,6.257l5.083,12.514l-10.167,2.503l-7.625,15.017l7.625,8.76l1.271,6.257l-6.354,5.005
			l-2.541,10.012l5.083,10.011l-7.625,10.011l-5.084-3.754h-8.896l-6.355,5.006l1.271,15.017l6.354,2.503l3.813-5.006l3.813,2.503
			v16.268h-5.083l-8.896-7.508l-2.542,3.754l-10.167-10.011v-10.012h-5.084l-1.271-5.005l-10.167-2.503l6.354-5.006l-13.979-11.263
			l-20.335-1.251l-8.896,7.508h-15.251l-6.354,1.252l2.542,10.011l-11.438,2.503l-13.979-10.011l-7.626,5.005l1.271,3.755
			l3.813,3.754L906.935,1045.957L906.935,1045.957z"/>
		<path id="path2235" fill="#C8E3C3" stroke="#FFFFFF" stroke-width="1" d="M703.5,1112.138l5.393-19.467l10.783,5.31l7.189-8.849
			v-15.928l8.986-19.467l17.974,5.309l17.973,12.389l-5.392,17.696l10.783,1.771l5.393-19.468l21.567,14.158l17.974,3.539
			l3.595,8.85l7.188,5.309v12.388l-1.797,10.619l-8.986,14.157l-3.595,14.158l-12.581-14.158h-23.365l-17.974-5.309H750.23
			l-16.176-3.54L703.5,1112.138L703.5,1112.138z"/>
		<path id="path3207" fill="#C8E3C3" stroke="#FFFFFF" stroke-width="1" d="M773.596,1142.224l32.352,7.078l-3.595,17.697
			L773.596,1142.224z"/>
		<path id="path2237" fill="#C8E3C3" stroke="#FFFFFF" stroke-width="1" d="M828.863,1088.689l2.695,5.751l4.493,7.521l2.247,13.716
			l17.523-7.521l16.625-4.425l-7.638-14.157l-8.088-13.716l-16.177,0.885L828.863,1088.689L828.863,1088.689z"/>
		<path id="path3208" fill="#D0D6EC" stroke="#FFFFFF" stroke-width="1" d="M861.664,1061.259l-1.349,11.945l7.639,9.733
			l2.247,5.752l4.942-0.885l6.74-10.176l7.639-12.831l-3.595-9.291l0.449-10.618l-7.267-8.545l-7.562,14.297l-12.132-3.098
			l-0.449,9.291L861.664,1061.259z"/>
		<path id="path4179" fill="#D0D6EC" stroke="#FFFFFF" stroke-width="1" d="M880.535,1090.459l11.233-20.352l4.044-6.194
			l-5.392-8.849l1.797-15.043l14.379,6.194l6.29-9.291l-3.145-5.31l-0.899-3.981l5.842-3.54l14.828,9.734l11.232-3.098l-1.348-9.291
			l6.74-1.77l14.827,0.442l8.088-7.521l19.321,1.327l-3.145-0.885l11.232,6.194l6.74,5.751l-5.392,4.425l9.436,3.097l1.797,4.425
			h4.943l-0.899,9.733l10.335,9.733l2.247,4.425l-0.45,11.503l3.146,7.521l10.335,10.618l-0.449,7.078l6.29,2.213l-3.146,2.654
			l0.45,5.31l13.03,10.176l6.74,21.679l6.739,21.68l1.132,7.454l-1.581,5.376l0.898,4.424l8.986,4.867l-3.595,3.097l-0.449,3.982
			l3.146,6.636l2.696,3.54l-0.898,4.425l1.797,34.066l4.493,5.752l4.942,9.733l-1.348,11.061l-9.885,5.752l-12.582-6.637
			l-10.783,0.442l-16.176-2.212l-8.088-5.31l-8.088-0.442l-9.437,5.31l-3.146-2.213h-8.986l-11.683-5.751l-5.841-10.176
			l-0.449,0.885l-7.189-0.442l-4.942-7.079l8.537-2.212l5.392-7.521l-0.898-15.485l5.841-9.733l-6.739-6.193l-1.349-9.734
			l-8.088-9.733l-3.595-7.964l-13.479-9.733l-1.797-8.849l-9.437-6.193l-3.595-17.255l-17.973-4.867l-13.03,11.062l-4.943-3.098
			l-4.942,10.176h-5.392l-12.132-6.636v-8.406h-0.449l-5.842-6.194l-8.537-8.406l7.189-3.981l-0.449-8.406L880.535,1090.459
			L880.535,1090.459z"/>
		<path id="path5150" fill="#F9D0CF" stroke="#FFFFFF" stroke-width="1" d="M847.202,1286.223l-12.709-21.273l-5.083-12.514
			l6.354-17.52l8.896-15.017l11.438-12.514l3.813-12.514l-5.083-10.012v-8.76l-8.896-5.005l-8.896-2.503v-8.76l-7.625-3.754
			l6.354-12.514l2.541-12.514l1.271-10.012l12.709-3.754l8.896-3.754l7.625-1.252l13.979,12.515l1.271,8.759l13.979,6.257
			l6.354-8.759l5.084,5.005l12.708-16.268l21.605,6.257l2.542,16.268l11.438,7.509l1.271,11.263l12.709,11.262l11.438,15.017
			l-1.271,8.76l10.167,8.76l-7.625,7.509l1.271,16.268l-3.813,8.76h-8.896l-5.083,2.503l-7.626-5.006l-13.979,1.251l-6.354-10.011
			h-6.354l-7.625,3.754l-3.813,12.514l-2.541,8.76l-17.793,6.257h-6.354l-12.709,7.509h-2.541l-3.813-7.509h-3.813l-3.813,5.006
			l-1.271,12.514v6.257l-7.626,8.76L847.202,1286.223L847.202,1286.223z"/>
		<path id="path6121" fill="#F9F6C2" stroke="#FFFFFF" stroke-width="1" d="M857.369,1288.726l3.813,12.514l16.521,6.257
			l2.542,10.011l5.083,10.012l16.521,13.765l6.354,23.776l11.438,26.279l5.083,20.022l22.877,22.524l7.625,13.766l17.792,6.257
			l20.335-15.017l-3.813-17.52l-13.979-22.524l1.271-7.509l-20.335-30.033l-1.271-20.022l12.709-6.257l3.813-15.017v-21.273
			l-12.709-8.76l-15.251-6.257l-1.271-5.005l10.167-3.755l-5.083-8.759l6.354,1.251l12.709-28.782l-7.625-3.754h-12.709
			l-5.084-10.011l-13.979,2.503l-7.625,25.027l-20.335,6.257l-2.541-2.503l-16.521,8.76l-5.084-7.508h-3.813l-3.813,3.754v23.776
			L857.369,1288.726L857.369,1288.726z"/>
		<path id="path2242" fill="#F9D0CF" stroke="#FFFFFF" stroke-width="1" d="M612.087,1587.806l-2.541-18.771l-7.626-10.011
			l1.271-18.771l10.167-17.519l-2.542-11.263v-17.52l8.896-10.011h5.083l-6.354-6.257l-15.25-23.776l17.792,10.011l11.438,10.011
			l-1.271-11.262l-5.083-13.766l6.354-8.76l-6.354-17.52v-18.771l-5.084-5.006l-17.792-2.503l-1.271-13.765l20.335-7.509v-21.273
			l-1.271-5.005l2.542-3.755l1.271-8.76l19.063,2.503l6.354-8.76h1.271l8.896,11.263l-1.271,12.514h6.354l7.625,11.263h7.626
			l2.542,7.509l19.063,3.754l8.896,2.502l-1.271,6.258l-5.084,1.251v6.257l-8.896,6.257l-2.542,10.011l-13.98,8.76l7.626,7.509
			v10.011l-12.709,2.503v25.027l20.334,3.755l2.542,2.502l-2.542,6.258l-12.709,12.514l-7.625-6.258l-6.354,3.755l-7.626-3.755
			l1.271,15.018l-7.625,11.262l1.271,10.012l7.625-3.755l2.542,15.017l-3.813,7.509l-3.813,17.52l-8.896,16.268l-8.896,1.251
			l-15.251,16.269H612.087L612.087,1587.806z"/>
		<path id="path3218" fill="#F9F6C2" stroke="#FFFFFF" stroke-width="1" d="M662.923,1513.975l-6.354,5.005l-2.541-10.011
			l8.896-11.263l-3.813-18.771l7.625,7.508l8.896-5.005l5.084,5.005l15.25-10.011l1.271-7.508l-20.335-6.257l-1.271-23.776
			l12.709-3.755v-8.759l-8.896-10.012l13.98-7.508l1.271-10.011l11.438-6.258l-1.271-3.754l6.354-2.503l1.271-6.257l-8.896-5.006
			l8.896-7.508l5.083-2.503l2.542,7.509h7.625l5.084-2.503l10.167,11.263l-3.813,5.005l-1.271,6.257l2.541,3.755h7.626l3.813,6.257
			l21.605,3.754l1.271,5.006l-6.354,1.251l-3.813,6.257l13.979,2.503l1.271,6.257l-11.438,2.503c0,0,2.542,7.508-2.542,7.508
			s-10.167-5.005-10.167-5.005l-3.813,5.005l-7.626-1.251l-3.813,7.508l-2.542,7.509l-8.896,3.754l-13.98,8.76l-8.896,6.257
			l-1.271,8.76l-2.542,15.017l-10.167,6.257l-5.083,11.263l-6.354,7.509L662.923,1513.975L662.923,1513.975z"/>
		<path id="path4189" fill="#C8E3C3" stroke="#FFFFFF" stroke-width="1" d="M706.134,1467.673l16.521-8.76l16.521-7.508
			l5.083-13.766h7.626l2.542-3.754l15.25,3.754l2.542-8.76h8.896l-1.271-7.508l-15.25-2.503l3.813-7.508l6.354,1.251l-1.271-6.257
			l-20.335-2.503l-5.083-6.257l-10.167-1.252l1.271-7.508l5.083-3.754l-11.438-13.766h-8.896l-5.083-6.257l-16.522,10.011
			l-20.334-3.754l-1.271-5.006h-5.084l-7.625-12.514h-8.896l1.271-12.514l-7.625-10.011v-15.017l11.438-12.514l1.271-6.258
			l11.438-6.257l2.542-6.257l11.438-1.251v-15.017l15.251,1.251l5.083-7.508l6.354,2.503l-1.271,30.033l17.792,7.508l10.167-2.503
			l6.354-3.754l7.626,5.006l3.813-8.76l15.251-7.509l17.792,3.755l17.793,10.011l12.709,11.263l15.25,6.257l15.251,6.257
			l11.438,10.011l7.625,17.52l-7.625,8.76l-12.709,6.257l-21.605,15.017l-11.438,11.263l-1.271,8.76l-15.251,2.503l8.896,13.765
			l-3.813,10.012l1.271,11.262l5.084,7.509l-15.251,1.251l-13.979,7.509v8.76l-2.542,8.76l-8.896-2.503l-7.625-1.252l-16.521-7.508
			l-8.896,5.005l-1.271,6.258l-15.251,6.257l-1.271-11.263L706.134,1467.673L706.134,1467.673z"/>
		<path id="path2245" fill="#D0D6EC" stroke="#FFFFFF" stroke-width="1" d="M708.893,1466.082l17.973,1.77l-1.797,8.849
			l17.973-5.309v-3.54l10.784-7.078l12.581,5.309l-3.595,14.158l-12.581,1.77l-12.581,17.697l5.392,14.158l-3.595,10.618
			l-17.973,3.539l-7.189,12.388l-1.798,14.158l5.393,7.079l16.176-15.928l8.986-3.54l7.189,3.54l30.555,1.77l1.797,12.388
			l-17.974,17.697l-5.392,10.619l12.581,7.078v10.618l-12.581,21.237l-10.784,12.388v26.546l-17.973,21.236l1.797,19.467
			l-16.176,5.31l-14.378,8.849l-16.176-3.539l-12.581-10.619l-23.365-5.309l5.392-8.849l-7.189-8.849c0,0-7.188-19.467,1.798-19.467
			s21.567-7.079,21.567-7.079l-12.581-5.31l-12.581-1.77l1.797-17.697l8.987-10.618l-5.393-8.849l-5.392,12.388l-8.986,1.771
			l-1.798,12.388l5.393,5.31l-8.987,10.618l-14.378-23.007l-3.595-17.697v-24.775l0,0l17.973-8.85l8.987-10.618l7.188,3.54
			l12.582-26.546l5.392-14.158l-3.595-15.927l17.973,1.77l12.582-15.928l10.783-7.079l1.798-14.157L708.893,1466.082
			L708.893,1466.082z"/>
		<path id="path3216" fill="#F9D0CF" stroke="#FFFFFF" stroke-width="1" d="M766.406,1612.969l3.595-17.696l-12.581-7.079
			l19.771-21.236l5.392-5.31l-3.595-14.158l-26.96,1.771l-8.986-5.31l-25.162,14.157l-3.595-8.848l1.797-17.697l23.365-5.31
			l3.595-10.618l-7.189-15.928l14.379-15.928l10.784-1.77l5.392-14.157l16.176,1.77l5.392-15.928l25.163-7.079l1.797-12.388
			l12.581,12.388l10.784,14.158l-1.798,17.697l14.379,5.309l8.986,28.316l-12.581,7.078v15.928l-10.784,21.236l-7.188,19.467
			l-3.595,10.619l3.595,24.775l-32.352,10.619L766.406,1612.969z"/>
		<path id="path4187" fill="#F9D0CF" stroke="#FFFFFF" stroke-width="1" d="M771.798,1621.817l17.974,8.849l8.986,8.849
			l1.797,14.158l-5.392,15.928l-8.986,12.388l-19.771-8.849l-5.393,12.388l-5.392,17.697l-12.581,5.31l3.595-19.467l7.189-14.158
			v-15.928l7.188-14.157L771.798,1621.817L771.798,1621.817z"/>
		<path id="path4190" fill="#F9D0CF" stroke="#FFFFFF" stroke-width="1" d="M807.744,1630.666l16.176-10.618l5.393,10.618
			l-1.798,12.389l-10.784,12.388l-8.986,8.849v-19.467V1630.666L807.744,1630.666z"/>
		<path id="path4192" fill="#F9D0CF" stroke="#FFFFFF" stroke-width="1" d="M827.515,1660.752l-16.176,15.928l-5.392,15.927
			l14.378,7.079l10.784-12.388l-3.595-12.389V1660.752L827.515,1660.752z"/>
		<path id="path5169" fill="#D0D6EC" stroke="#FFFFFF" stroke-width="1" d="M832.906,1598.812l16.177-17.697l14.378-21.236
			l1.798-31.855l-1.798-23.006l-7.189-19.468l-7.188-19.467v-19.467l-12.581-10.618l-12.582-14.157l1.798-15.928l10.784-17.697
			l16.176-8.849l7.188-8.849l25.163-1.77l5.392,19.467l10.784,38.934l17.973,21.236l12.581,15.928l7.189,10.618l-1.797,19.468
			l-5.393,5.309v23.007l-7.189,15.927l-3.594,12.389l-3.595,15.927v15.928v12.388l-12.581,8.85l-7.189,14.157l-21.568,7.079
			l-1.797,10.618l-10.784,5.31l-14.378,8.849c0,0-5.393-1.771-5.393-8.849c0-7.079-5.392-15.928-5.392-15.928l8.986-12.388
			L832.906,1598.812L832.906,1598.812z"/>
		<path id="path5171" fill="#D0D6EC" stroke="#FFFFFF" stroke-width="1" d="M843.69,1673.14l8.986-12.388l10.784,14.157
			l-7.189,7.079L843.69,1673.14z"/>
		<path id="path5173" fill="#D0D6EC" stroke="#FFFFFF" stroke-width="1" d="M960.516,1515.635l-7.188,23.006l-8.987,26.546v24.776
			l17.974,19.467v-23.006v-23.007l8.986-23.007l1.798-12.388L960.516,1515.635L960.516,1515.635z"/>
		<path id="path5175" fill="#D0D6EC" stroke="#FFFFFF" stroke-width="1" d="M870.65,1646.594l-5.392,14.158h17.973L870.65,1646.594z
			"/>
		<path id="path6152" fill="#F9D0CF" stroke="#FFFFFF" stroke-width="1" d="M957.771,1338.78l10.167-12.514l5.083-20.021
			l-10.167-12.515l-17.792-12.514l2.542-12.514l15.25-27.53l20.335,7.509l20.334,17.519l20.334-7.508l12.709,2.503l27.96,7.508
			l2.541,10.012l-2.541,12.514v10.011l-7.626,22.524l22.876-2.502h12.709l-10.167,15.017v12.514l5.084,17.519l-15.251-7.508
			l-15.251,5.006l-27.959-2.503l-15.251-10.011l-7.625,10.011c0,0-7.626,7.508-17.793,2.503
			C978.104,1358.803,960.312,1341.283,957.771,1338.78L957.771,1338.78z"/>
		<path id="path6154" fill="#F9D0CF" stroke="#FFFFFF" stroke-width="1" d="M983.188,1393.842h27.959l12.709,15.017l10.167,17.52
			l-7.625,15.017l-17.793,7.508l-12.708-2.503l-2.542-22.524L983.188,1393.842L983.188,1393.842z"/>
		<path id="path6156" fill="#F9D0CF" stroke="#FFFFFF" stroke-width="1" d="M1026.398,1378.825l33.043,2.503l15.251,12.514
			l-2.542,15.017l-22.876-10.011L1026.398,1378.825L1026.398,1378.825z"/>
		<path id="path6158" fill="#F9D0CF" stroke="#FFFFFF" stroke-width="1" d="M1072.15,1453.908l-25.418-7.509v-20.021v-12.515
			l20.334,10.012l7.626,12.514L1072.15,1453.908z"/>
		<path id="path6160" fill="#F9D0CF" stroke="#FFFFFF" stroke-width="1" d="M978.104,1466.422l33.043,2.503l10.167,22.524
			l2.542,20.022l10.167,12.514l-2.541,27.53l-5.084,27.53l-17.793,12.514l-15.25,17.52l-7.626-2.503l2.542-25.027l2.542-27.53
			l2.542-25.027l-2.542-25.028L978.104,1466.422z"/>
		<path id="path7138" fill="#F9F6C2" stroke="#FFFFFF" stroke-width="1" d="M1088.125,1361.669l-7.189-10.618l1.798-10.619
			l10.784-19.467l-12.582,1.77l-16.176-3.539l-5.392,5.31l3.595-14.158l-1.797-12.388l3.594-10.619l-5.392-21.236l19.771,5.31
			l10.784-8.849l10.784,3.539l7.188-7.078l-5.392-15.928l-3.595-10.618v-10.619l3.595-14.157l1.797-12.389l16.176,3.54
			l10.784,17.697l10.784,21.236l3.595,15.928v14.157l12.581,17.697l-1.797,12.389l14.378,5.309l-19.771,1.77l1.798,19.468h-14.379
			l-10.784,7.078l-5.392,15.928l-12.581,17.697v12.388l-7.189-3.539v-8.849L1088.125,1361.669L1088.125,1361.669z"/>
		<path id="path2436" fill="#C8E3C3" stroke="#FFFFFF" stroke-width="1" d="M1075.544,1374.057l16.176,5.31l3.595,12.388
			l-5.392,1.77L1075.544,1374.057L1075.544,1374.057z"/>
		<path id="path2438" fill="#C8E3C3" stroke="#FFFFFF" stroke-width="1" d="M1086.328,1409.451l10.783,19.467l7.189,10.618v7.079
			l-3.594,1.77l-3.596,17.697l5.393,19.467l16.176,17.697l10.784,5.31v10.618l1.797,3.539h14.379l8.986-10.618l3.595-10.618v-10.618
			l-3.595-10.618l-28.757-47.783l-1.798-10.618L1086.328,1409.451z"/>
		<path id="path2440" fill="#C8E3C3" stroke="#FFFFFF" stroke-width="1" d="M1240.896,1566.956l-10.783-7.078l-3.595-21.237
			l-1.798-19.467v-7.078l-12.581-19.468l-8.986-24.776l-14.379-12.388l-10.783-15.927l-7.189-14.158v-5.31l-7.189-8.849
			l-8.986-7.078l-26.96-19.468l5.392-8.849l-12.581-12.388l1.798-10.618l5.392-21.236l17.973-7.079h7.189l1.798-17.697h14.378
			l12.582,3.539l7.188-8.849l21.568-5.309l10.783,5.309l3.595,10.618l-7.189,12.389l8.987,12.388l8.986,17.697l8.986,15.928
			l7.189,12.388v-14.158h14.378l7.189,5.31v15.928l12.582,1.77l3.594,17.697l1.798,19.467l5.392,14.158l-1.797,12.388l12.581,8.849
			l3.595-8.849l1.797-8.849l-5.392-7.079l1.797-15.928l14.379-5.309l14.378,15.927l12.581,30.086l3.595,21.236l-12.581,23.007
			l19.771,14.157l-3.595,14.158l-1.797,8.849l5.392,21.236l1.797,8.849v8.849l5.393,8.849l-3.595,10.618l3.595,17.697l10.783,21.237
			l-5.392,10.618l-5.392,7.079l5.392,12.388l-12.581,3.539l-10.784-3.539l3.595-10.618h-16.176l-10.783,10.618l-19.771,3.539
			l-10.784,10.618l-17.974,10.619l-3.595-14.158l8.987-12.388l-14.379-12.389v-15.927l-10.784-14.158l-3.595-24.776l-8.986-8.849
			L1240.896,1566.956L1240.896,1566.956z"/>
		<path id="path4385" fill="none" stroke="#000000" stroke-width="1" d="M1288.202,1403.853L1288.202,1403.853z"/>
		<path id="path4387" fill="none" stroke="#000000" stroke-width="1" d="M1270.41,1388.836L1270.41,1388.836z"/>
		<path id="path4391" fill="#D0D6EC" stroke="#FFFFFF" stroke-width="1" d="M1288.202,1401.35l17.792-22.524v-17.52l7.626-25.027
			l35.585-25.028l-10.167-47.552l25.417-12.515l-5.083-22.524l-12.709-32.536l5.084-20.021l-17.793-17.52l25.418-30.033
			l-30.501-67.575l-15.251,2.503l-17.793-30.033h-7.625l-10.167,10.012l10.167,42.547l5.083,27.53l-7.625,10.011v15.017
			l-15.25-5.005l-17.793,15.016l-17.793,30.033l-7.625,22.525l12.709,22.524l2.233,31.651l-3.132,8.09l-9.269,0.304v7.508
			l-20.335,25.027l15.251,12.515l-5.083,10.011l2.541,10.011l15.251,32.536l15.251,20.022l2.542-10.012l17.792,2.503l2.542,15.017
			L1288.202,1401.35L1288.202,1401.35z"/>
		<path id="path7308" fill="#F9F6C2" stroke="#FFFFFF" stroke-width="1" d="M1377.165,1699.179l-10.168,12.514l-17.792-7.508
			l-5.084-10.012l-15.25-22.524l7.625-10.011h12.709l5.083,10.011l17.793,2.503v-10.011l7.625-20.022l-7.625-12.514l-5.084-25.028
			l-2.542-12.514l-5.083-25.027l-5.084-17.52l5.084-25.027l15.251,5.006l15.25-7.509h25.418l15.251,10.011l22.876,12.514
			l12.709,27.531l12.709,35.038l-5.084,10.011l15.251,32.536l15.251,42.547l2.542,12.515l-2.542,27.53v17.519l-2.542,20.022
			l2.542,25.028l7.625,27.53l2.542,27.53l2.542,22.524l12.709,22.525l-12.709,5.005l-12.709,15.017l-7.625-5.005l-2.542-12.514
			l-7.625-17.52l2.541-10.012l-7.625-2.502l-7.625,5.005l-12.709,2.503l-15.251-5.006l-2.542-10.011l-10.167-25.027l-7.625-5.006
			l-10.167,12.514l-5.084,10.011l-10.167-2.502l-12.709,22.524l-7.625,2.503l-7.626,10.011l2.542,20.022l-7.625,17.52l-2.542-25.027
			l-7.625-20.022l-2.542-10.011l15.251-17.52l10.167,10.011l7.625-15.017l-10.167-20.022l-10.167-17.519l5.084-10.012
			l-12.709-12.514l-5.084-15.017l-7.625-20.022l12.709-12.514h20.334v-15.017h12.709v-7.508L1377.165,1699.179L1377.165,1699.179z"
			/>
		<path id="path8279" fill="none" stroke="#000000" stroke-width="1" d="M1305.995,1463.919l-10.168-10.011"/>
		<path id="path8281" fill="#F9D0CF" stroke="#FFFFFF" stroke-width="1" d="M1290.744,1426.377l-5.084-25.027l12.709-15.017
			l10.167-17.52l2.542-30.033l38.127-27.53l-2.542-15.017l-5.083-27.53l22.876-17.52l-5.084-20.021l-7.625-32.536v-17.52
			l-17.793-25.027l22.876-30.033l-10.167-25.028l-17.792-45.049l5.083-7.509l20.335-20.022h12.709l7.625,12.515l5.084,20.021
			l5.083-17.52l5.084-10.011l12.709,5.006l-7.626,17.52l5.084,17.519l5.084,12.515l5.083,45.049l12.709,17.52l7.625,15.017
			l-5.083,10.012l7.625,7.508l2.542,10.011l-17.793,12.515l2.542,20.021l2.542,17.52l2.542,12.514l10.167,12.514l-7.626,40.045
			l10.168,20.021l20.334,10.012l-5.084,12.514l7.626,30.033l15.25,15.017l2.542,20.021l5.084,25.028l-7.626,5.005l7.626,25.028
			l5.083,30.032l5.084,25.028v15.017l5.083,20.021l5.084,20.022v22.525l-12.709-5.006l7.625,27.53l10.168,40.044l7.625,25.028
			l-10.167,17.52l-5.084-12.515l-7.625-22.524l-7.626-25.027l-12.708-25.028l2.541-7.508l-5.083-20.022l-10.167-35.039
			l-10.168-10.011l-25.417-17.52l-33.044-7.508l-22.876,10.011l-15.251-12.514l-10.167-15.017l7.625-20.022l-2.541-20.021
			l-12.709-25.027l-15.251-22.525l-7.625,2.503l-10.167,15.017l7.625,20.021l-5.084,10.012l-10.167-12.514L1290.744,1426.377
			L1290.744,1426.377z"/>
		<path id="path9252" fill="none" stroke="#580F0F" stroke-width="1.25" stroke-opacity="0.9934" d="M358.416,1747.468l-10.784-1.77
			l-7.189-15.928l-10.784-7.078l5.392-23.007l-10.784-19.467l5.392-10.618l7.189,15.928l7.189,17.696v12.389l16.176,12.388
			L358.416,1747.468z"/>
		
			<path id="path11192" fill="none" stroke="#646464" stroke-width="3.125" stroke-opacity="0.9922" stroke-dasharray="25,6.25,3.125,6.25" d="
			M385.376,1775.783l-8.987-14.157l12.581-12.388l-7.189-12.389l-1.797-19.467h-19.771l-8.987-24.776l-7.189-15.927l-3.595-31.855
			l-14.378-28.315l1.797-17.697l19.771-7.079l-7.189-14.157l-8.986-17.697l-10.784-8.849l-8.986-21.236v-15.928l-1.797-12.389
			l7.189-12.388l-8.986-23.006l-14.378-19.468l8.986-15.927l-14.378-12.389l10.784-15.927l-12.581-21.237l17.973-31.854
			l-12.581-8.849l-8.987-14.158l1.797-8.849l-16.176-14.157l3.595-23.007l3.594-10.618l-7.189-12.388l16.176-14.158l10.784-10.618
			l17.973-12.388l-7.189-7.079l-10.784,7.079l-8.986-8.849l-10.784-3.54l-21.567-8.849l-1.797,10.618h-8.987l-16.176-7.078
			l-5.392-10.619l-7.189-10.618L227.212,1167l7.189-12.389l1.797-21.236h8.986l-7.189-14.158l-25.163-17.696l-10.784-12.389
			l-7.189-10.618h-12.581v-14.158l-10.784-3.539l8.986-14.158l-10.784-5.309l10.784-15.928l-7.189-10.618l12.582-8.849
			l-3.595-24.776l5.392-7.079l10.784,8.849l19.771-12.388l12.581-7.079l-3.595-15.927l-5.392-17.697l7.189-14.158l-14.378-10.618
			l-5.392-28.315l5.392-8.849l8.986-8.849v-15.928l-7.189-15.928l-5.392-8.849l-10.784,8.849l-21.568,1.77l-10.784-8.848
			l-7.189,7.078l-25.162-21.236l-25.163-10.618l-21.568-19.467l-28.757-8.849l-16.176,1.77l-8.987-12.389l-19.771-17.696
			l1.797-8.849L9.737,717.49l-12.582-12.388l-7.189-15.928l8.986-7.079l3.595-21.236l12.581-3.539v-7.079l21.568-17.697
			l-1.797-15.928l-12.581-8.849l16.176-12.388l10.784,1.77l10.784-5.31v14.158l10.784,10.618l14.378,8.849l10.784-8.849
			l-8.987-3.539l5.392-14.158h17.973l7.189-14.157l3.595-10.619l8.987-3.539l-8.987-10.618l8.987-12.389l-3.595-14.157l8.987-7.079
			l-5.392-8.849l12.581-14.158l17.973,8.85l10.784,5.309l7.189-8.849h16.176l19.771-5.31l21.568,10.619l10.784,3.539l12.581-14.158
			l21.568,15.928l10.784-1.77v-10.618l7.189-19.467l14.379-5.31l1.797-10.618l-25.162-3.539h-8.987l-3.594-12.389l-5.392,7.079
			l-16.176-15.928l-5.392-17.697l5.392-15.927l-8.987-12.389v-14.157l-7.189,7.078l-7.189-8.849v15.928h-7.189l-12.582,8.849
			h-14.378l-3.595-8.849l-10.784,3.54l-5.392-7.079l-14.378,3.539l-5.392-3.539l-14.378-14.158l1.797-8.849l-14.378-1.77
			l-7.189-12.388l3.595-3.54V342.31h-12.581l-12.582-14.158l-3.594-8.849l-10.784-1.77l-5.392-12.388l-14.379-5.309v-12.388
			l-17.973,12.388l-7.189-7.079l-8.987,8.849l-7.189-3.54l-14.378-15.928l3.594-10.618l-7.189-5.309v-17.697l10.784-5.309v-12.388
			l17.973-12.388l3.595-10.618l-7.189-10.618l7.189-23.006l12.581-3.54l3.595-12.388h10.784l17.973-5.309l14.379-10.618
			l-8.987-10.619l8.987-17.697h10.784l14.378-15.927l8.987-8.849l8.986,7.079l8.987-3.539l-8.987-10.619l-1.797-14.158l-5.392-8.849
			l-14.379,3.54l-7.189-7.079l-8.987-3.539l-7.189,12.388l-7.189-3.539l-1.797-15.928l12.581-14.158V16.681L121.17-2.786
			l3.595,19.467v14.158h17.973l1.797,10.618l10.784-1.77l-1.797,10.618h12.581l5.392,8.849l12.581-7.079l3.595,12.388l17.973,15.928
			l8.986-1.77l1.797,19.467l16.176-1.77v12.388v5.309h16.176l3.595,8.849l-1.797,10.619l17.973,12.388l1.797-12.388l3.595-14.158
			l14.378,3.54l10.784,19.467l12.582-5.31l14.378,3.54l5.392-8.849l-7.189-8.849l-7.189-7.079l-10.784,3.539l-1.797-8.848
			l3.595-7.079l-5.392-7.079l-5.392,5.31l-16.176-7.079l-5.392-15.927l14.378-12.388l10.784-7.079l7.189,12.388l17.973,7.079
			l21.568,3.539l1.797,7.079l-10.784,3.54l8.987,5.309l-7.189,5.309l23.365,5.309l-3.595,8.849l-14.378-1.77v7.079l14.378,15.928
			l1.797,10.618l-3.595,8.849l8.986,15.928l26.96,8.848l7.189,12.388l-8.987,3.54l23.365,8.849l10.784,12.388l17.974,3.539
			l10.783-17.697l5.393,10.618l7.188,7.079h17.974l7.189,5.31l-1.798,8.849l8.987,3.539l8.986-10.618l-8.986-5.309l1.797-12.388
			l14.379-7.079l10.783-1.77l-5.392-21.237l-8.986,12.388l-1.798-14.158l-5.392-12.388l14.378-12.388l7.189-15.928l14.379,5.309
			l-3.595,15.928l5.392,10.618l14.379-7.079l7.189,12.388l7.189,10.619l5.392,8.849l-8.986,7.079l14.378,12.388v12.388h14.379
			l-10.784,10.618l0,0l19.771,12.388l-7.189,8.849l-7.189,3.539l-3.594,15.928l-5.393,3.54l10.784,23.006l-7.189,3.539
			l-3.595,10.618l8.986,5.31l-3.594,5.31l14.378,12.388l-7.189,15.928l5.393,17.697l-8.987,8.849l1.798,28.315l-7.189,14.157
			l-1.797,14.158l-3.595,8.849l7.189,7.079l-1.798,8.849l16.176,12.388l5.392-7.079l17.974-5.309l16.176,8.849l19.771,12.388
			l19.771,10.618l28.757,5.31l16.176,7.079l12.581,3.539l17.974-3.539l3.595,15.927l17.973-3.539l12.581,3.539
			c0,0,3.595-8.849,19.771-8.849s25.162,0,25.162,0h12.582l10.783-5.309l8.986,7.078v3.54l30.456-9.22l15.251,7.509l40.669,2.503
			l25.418-12.514h35.585h27.959l20.335-7.509l22.876,17.52l12.709-7.509l22.876,10.012l20.334,7.508l12.709-7.508l12.709-5.006
			l15.251,7.509l15.251,5.005l10.167-10.011l15.25-5.006l30.502,5.006l33.043-5.006h17.793l22.876-2.502l7.625-5.006l17.793,15.017
			l17.792,7.508l10.167,15.017l20.334,5.006l12.709-5.006l2.542,10.012l30.501,17.519l-2.541,15.018l20.334,5.005v17.52
			l-2.542,15.017h-10.167h-20.334l-10.168,5.006l-15.25-2.503l-15.251,7.508l10.167,15.017l-17.792,30.033l-7.626,20.022
			l-7.625,12.514l2.542,15.017l-10.167,12.514l-12.709,2.503l-5.084,10.011l2.542,15.017l10.167,17.52l-12.709,10.011l-22.876,7.509
			l-17.792-7.509l-7.626,5.006l10.167,15.017l-10.167-2.503h-10.167l-5.084,12.514l2.542,20.022l-5.083,17.52l-12.709,15.017
			l-10.167-7.509l-10.168-10.011l-17.792-7.508l-5.084,10.011l7.626,17.52l-10.167,5.005l-12.709-7.508l-7.626-12.514l-15.251-7.509
			l2.542,20.022l-5.083,20.021l-17.793,12.515l-17.792-5.006l-12.709-5.006l-20.335-7.508l-15.25,2.503l10.167,20.021l-5.084,17.52
			l-12.709,7.508l-12.709-5.005c0,0-12.708,5.005-17.792,15.017c-5.084,10.011-10.167,20.021-10.167,20.021l7.625,15.018
			l-7.625,7.508l-2.542,27.53l-15.251-2.503l-5.083,12.514l4.04,5.443l8.065,3.971l3.145,10.608l-5.604,9.046l-10.135,12.997
			l25.907,45.532l7.625,27.53l10.167,17.52l5.084,22.524l5.083,12.514v15.017v20.022l10.167,20.022l7.626,12.514l15.25-2.503
			l-7.625-15.017l-2.542-27.53l2.542-25.027l17.793,5.005l20.334,22.525v20.021l2.542,17.52l5.083,25.027l10.168,20.022
			l15.25-10.011l5.084,7.508l17.792-10.011h12.709l20.335-27.53l-0.373-3.484l8.088-0.885l3.595-8.849l-0.898-11.504l-1.798-10.618
			v-8.849l-6.29-11.503l-7.189-12.388l8.088-23.892l16.176-26.546l21.567-15.928l14.379,7.079l-0.898-20.352l7.189-10.618
			l-14.379-66.365l9.885-12.388h7.189l8.088,15.928l8.088,15.928l14.379-2.655l6.291-10.618l11.682-12.388l10.784-8.849h10.784
			l6.291,9.733l6.29,17.697l4.493-10.618l7.189-12.389l7.189,3.54l4.493,4.424l-4.493,5.31l-3.595,8.849l3.595,14.158l3.595,10.618
			l4.493,7.078l1.797,23.892v18.582l13.48,16.813l8.986,16.813l-5.392,8.849l6.29,7.079l4.493,7.963l-1.797,5.31l-14.379,10.618
			l0.899,7.079l0.898,19.467l1.797,19.467l4.493,7.079l6.291,9.733l-4.493,27.431l-1.798,13.273l6.291,12.388l3.595,6.194
			l14.379,7.963l7.188,4.425l-4.493,7.079l2.696,21.236l4.493,16.813l14.379,12.388l1.797,19.467l4.493,19.467v6.194l-8.088,4.424
			l8.986,19.468l9.886,58.4l0.898,20.352l10.784,38.935v20.352l-8.088-2.654l-6.291-4.425l4.493,13.273l10.784,43.358l4.493,20.352
			l5.392,15.927l-8.986,16.813v18.582l-2.696,13.273l-0.898,23.892v18.582l1.798,16.813l6.29,25.66l1.798,12.389l2.695,19.467
			l0.899,17.697l10.783,19.467l3.595,7.964l-9.885,3.539l-15.277,14.158l-5.392-2.655l-13.48-29.2l2.696-12.388l-7.189-4.425
			l-8.986,8.849l-8.986,0.885l-11.683-1.77l-8.088-6.193l-8.088-25.661l-6.291-8.849l-5.392-2.654l-14.379,22.121l-8.986-4.425
			l-8.986,10.618l-4.493,14.158l-11.683,3.539l-4.493,8.85l5.392,20.352l2.689,16.178l-12.574,13.907l11.676,18.582l11.007,11.887
			l6.966,12.005l-8.979,13.272l9.879,20.854l4.492,15.426l-2.688,11.503l9.209,14.291l2.474,20.219l4.493,9.734l2.688,5.059"/>
		<text transform="matrix(1.0407 0 0 1 584.6895 1861.0869)" fill="#1292CC" font-family="'Arial-ItalicMT'" font-size="44.6387">BAY OF BENGAL</text>
		<text transform="matrix(0.9299 0 0 1 729.6426 1022.9307)" fill="#7E8ECC" font-family="'ArialMT'" font-size="17.8907">Dhaka</text>
		<text transform="matrix(0.9299 0 0 1 979.3887 1161.626)" fill="#7E8ECC" font-family="'ArialMT'" font-size="17.8907">Comilla</text>
		<text transform="matrix(0.9299 0 0 1 730.8164 1115.9111)" fill="#53BF3F" font-family="'ArialMT'" font-size="17.8907">Munshiganj</text>
		<text transform="matrix(0.9299 0 0 1 753.9668 716.6992)" fill="#7E8ECC" font-family="'ArialMT'" font-size="17.8907">Mymensingh</text>
		<text transform="matrix(0.9299 0 0 1 1283.3408 626.2109)" fill="#7E8ECC" font-family="'ArialMT'" font-size="17.8907">Sylhet</text>
		<text transform="matrix(0.9299 0 0 1 1257.1357 1231.7637)" fill="#7E8ECC" font-family="'ArialMT'" font-size="17.8907">Khagrachari</text>
		<text transform="matrix(0.9299 0 0 1 873.6406 1491.2529)" fill="#7E8ECC" font-family="'ArialMT'" font-size="17.8907">Bhola</text>
		<text transform="matrix(0.9299 0 0 1 652.1934 1602.5205)" fill="#7E8ECC" font-family="'ArialMT'" font-size="17.8907">Borguna</text>
		<text transform="matrix(0.9299 0 0 1 320.7656 1391.3789)" fill="#7E8ECC" font-family="'ArialMT'" font-size="17.8907">Shatkhira</text>
		<text transform="matrix(0.9299 0 0 1 571.0713 1274.9746)" fill="#7E8ECC" font-family="'ArialMT'" font-size="17.8907">Gopalganj</text>
		<text transform="matrix(0.9299 0 0 1 421.6396 1145.2598)" fill="#7E8ECC" font-family="'ArialMT'" font-size="17.8907">Magura</text>
		<text transform="matrix(0.9299 0 0 1 217.6226 1083.6641)" fill="#7E8ECC" font-family="'ArialMT'" font-size="17.8907">Chuadanga</text>
		<text transform="matrix(0.9299 0 0 1 423.623 925.3779)" fill="#7E8ECC" font-family="'ArialMT'" font-size="17.8907">Pabna</text>
		<text transform="matrix(0.9299 0 0 1 155.0513 763.6641)" fill="#7E8ECC" font-family="'ArialMT'" font-size="17.8907">Rajshahi</text>
		<text transform="matrix(0.9299 0 0 1 443.0508 485.3779)" fill="#7E8ECC" font-family="'ArialMT'" font-size="17.8907">Gaibandha</text>
		<text transform="matrix(0.9299 0 0 1 369.0513 237.0918)" fill="#7E8ECC" font-family="'ArialMT'" font-size="17.8907">Lalmonirhat</text>
		<text transform="matrix(0.9299 0 0 1 1355.0518 1399.6641)" fill="#FC6B68" font-family="'ArialMT'" font-size="17.8907">Rangamati</text>
		<g id="g4653">
			<path id="path5362" fill="#F9D0CF" stroke="#FFFFFF" stroke-width="1" d="M1239.908,1676.654l25.418-5.006l5.084,25.027
				l-7.626,22.525l-15.251,25.027l2.542-17.52l2.542-35.038L1239.908,1676.654z"/>
			<path id="path5364" fill="#F9D0CF" stroke="#FFFFFF" stroke-width="1" d="M1275.493,1699.179l27.96-15.017l12.709-10.011
				l12.709-2.503l17.792,30.033l20.334,10.011l7.626-2.503l5.083-12.514l12.709,17.52v7.508h-12.709l-2.542,17.52h-22.876
				l-10.167,12.514l10.167,25.028l20.335,20.022l-7.626,12.514l12.709,20.021l10.167,12.514l-5.083,17.52h-10.167l-2.542-10.011
				l-17.792,20.022l5.083,22.524l16.229,18.529l2.541,12.469l-12.154,14.534l11.145,20.021l18.803,23.535l-11.111,14.007
				l12.644,20.022l5.231,15.906l-4.896,9.911l7.321,16.247l10.167,25.027l-2.541,12.514l-7.626-7.508l-10.167-27.531l-12.709-15.017
				l-10.167-17.519l-7.625-17.52v-15.017l-43.211-50.056l-5.083-40.044v-17.52l-7.625-17.52l-15.251-20.022l-2.542-10.011
				l12.709-15.017l2.541-17.52l5.084-15.017l5.084-22.524l-2.542-27.53l-10.167,22.524l-12.709-7.508l10.167,17.52l7.625,20.021
				l-12.709,25.027l2.542,2.503l-25.418-2.503l2.542,12.515h-15.251l-2.542-12.515l7.626-22.524l5.083-20.022l-12.709-10.011
				L1275.493,1699.179L1275.493,1699.179z"/>
			<text transform="matrix(0.9299 0 0 1 1274.7666 1727.3779)" fill="#FC6B68" font-family="'ArialMT'" font-size="17.8907">Cox&apos;s Bazar</text>
			<path id="path3682" fill="#F9D0CF" d="M1287.056,1747.741l25.418-5.006l5.083,25.027l-7.625,22.525l-15.251,25.027l2.542-17.52
				l2.542-35.038L1287.056,1747.741z"/>
		</g>
		<text transform="matrix(0.9299 0 0 1 981.0518 1336.5205)" fill="#FC6B68" font-family="'ArialMT'" font-size="17.8907">Noakhali</text>
		<text transform="matrix(0.9299 0 0 1 877.9082 1199.6641)" fill="#FC6B68" font-family="'ArialMT'" font-size="17.8907">Chandpur</text>
		<text transform="matrix(0.9299 0 0 1 755.0518 1519.6641)" fill="#FC6B68" font-family="'ArialMT'" font-size="17.8907">Patuakhali</text>
		<text transform="matrix(0.9299 0 0 1 431.8438 1483.9014)" fill="#FC6B68" font-family="'ArialMT'" font-size="17.8907">Khulna</text>
		<text transform="matrix(0.9299 0 0 1 629.833 1390.9668)" fill="#FC6B68" font-family="'ArialMT'" font-size="17.8907">Pirojpur</text>
		<text transform="matrix(0.9299 0 0 1 650.0361 1233.3828)" fill="#FC6B68" font-family="'ArialMT'" font-size="17.8907">Madaripur</text>
		<text transform="matrix(0.9299 0 0 1 326.7871 1116.2051)" fill="#FC6B68" font-family="'ArialMT'" font-size="17.8907">Jhinaidaha</text>
		<text transform="matrix(0.9299 0 0 1 181.4473 1025.2715)" fill="#FC6B68" font-family="'ArialMT'" font-size="17.8907">Meherpur</text>
		<text transform="matrix(0.9299 0 0 1 600.5684 997.8447)" fill="#FC6B68" font-family="'ArialMT'" font-size="17.8907">Manikganj</text>
		<text transform="matrix(0.9299 0 0 1 772.1934 902.5205)" fill="#FC6B68" font-family="'ArialMT'" font-size="17.8907">Gazipur</text>
		<text transform="matrix(0.9299 0 0 1 932.8789 999.0283)" fill="#FC6B68" font-family="'ArialMT'" font-size="17.8907">Brahmanbaria</text>
		<text transform="matrix(0.9299 0 0 1 325.1118 801.0381)" fill="#FC6B68" font-family="'ArialMT'" font-size="17.8907">Nator</text>
		<text transform="matrix(0.9299 0 0 1 1086.4805 619.6641)" fill="#FC6B68" font-family="'ArialMT'" font-size="17.8907">Sunamganj</text>
		<text transform="matrix(0.9299 0 0 1 566.4805 636.8066)" fill="#FC6B68" font-family="'ArialMT'" font-size="17.8907">Jamalpur</text>
		<text transform="matrix(0.9299 0 0 1 316.4795 552.8066)" fill="#FC6B68" font-family="'ArialMT'" font-size="17.8907">Jaipurhat</text>
		<text transform="matrix(0.9299 0 0 1 263.6226 242.5205)" fill="#FC6B68" font-family="'ArialMT'" font-size="17.8907">Nilfamari</text>
		<text transform="matrix(0.9299 0 0 1 46.4795 239.6641)" fill="#FC6B68" font-family="'ArialMT'" font-size="17.8907">Thakurgaon</text>
		<text transform="matrix(0.9299 0 0 1 1092.1934 812.5195)" fill="#53BF3F" font-family="'ArialMT'" font-size="17.8907">Habiganj</text>
		<text transform="matrix(0.9299 0 0 1 127.042 122.8037)" fill="#F0AC0C" font-family="'ArialMT'" font-size="17.8907">Panchagarh</text>
		<text transform="matrix(0.9299 0 0 1 884.1855 631.0918)" fill="#53BF3F" font-family="'ArialMT'" font-size="17.8907">Netrokona</text>
		<text transform="matrix(0.9299 0 0 1 621.3281 805.3779)" fill="#53BF3F" font-family="'ArialMT'" font-size="17.8907">Tangail</text>
		<text transform="matrix(0.9299 0 0 1 1227.875 1528.2666)" fill="#53BF3F" font-family="'ArialMT'" font-size="17.8907">Chittagong</text>
		<text transform="matrix(0.9299 0 0 1 761.3281 1351.0918)" fill="#53BF3F" font-family="'ArialMT'" font-size="17.8907">Barisal</text>
		<text transform="matrix(0.9299 0 0 1 487.042 1248.2354)" fill="#53BF3F" font-family="'ArialMT'" font-size="17.8907">Narail</text>
		<text transform="matrix(0.9299 0 0 1 875.6133 939.6641)" fill="#7E8ECC" font-family="'ArialMT'" font-size="17.8907">Narsingdi</text>
		<text transform="matrix(0.9299 0 0 1 469.8984 1039.6641)" fill="#53BF3F" font-family="'ArialMT'" font-size="17.8907">Rajbari</text>
		<text transform="matrix(0.9299 0 0 1 24.1846 685.3779)" fill="#53BF3F" font-family="'ArialMT'" font-size="17.8907">Nawabganj</text>
		<text transform="matrix(0.9299 0 0 1 427.042 639.6641)" fill="#53BF3F" font-family="'ArialMT'" font-size="17.8907">Bogra</text>
		<text transform="matrix(0.9299 0 0 1 189.8989 351.0918)" fill="#53BF3F" font-family="'ArialMT'" font-size="17.8907">Dinajpur</text>
		<text transform="matrix(0.9299 0 0 1 501.3281 325.3779)" fill="#53BF3F" font-family="'ArialMT'" font-size="17.8907">Kurigram</text>
		<text transform="matrix(0.9299 0 0 1 1228.6709 767.1553)" fill="#F0AC0C" font-family="'ArialMT'" font-size="17.8907">Maulvibazar</text>
		<text transform="matrix(0.9299 0 0 1 1405.8135 1692.8691)" fill="#F0AC0C" font-family="'ArialMT'" font-size="17.8907">Bandarban</text>
		<text transform="matrix(0.9299 0 0 1 1092.957 1298.584)" fill="#F0AC0C" font-family="'ArialMT'" font-size="17.8907">Feni</text>
		<text transform="matrix(0.9299 0 0 1 879.5273 1310.0127)" fill="#F0AC0C" font-family="'ArialMT'" font-size="17.8907">Lakshmipur</text>
		<text transform="matrix(0.9299 0 0 1 694.3848 1424.2988)" fill="#F0AC0C" font-family="'ArialMT'" font-size="17.8907">Jhalokati</text>
		<text transform="matrix(0.9299 0 0 1 528.1523 1445.2725)" fill="#F0AC0C" font-family="'ArialMT'" font-size="17.8907">Bagerhat</text>
		<text transform="matrix(0.9299 0 0 1 350.3647 1247.2832)" fill="#F0AC0C" font-family="'ArialMT'" font-size="17.8907">Jessore</text>
		<text transform="matrix(0.9299 0 0 1 305.918 976.5625)" fill="#F0AC0C" font-family="'ArialMT'" font-size="17.8907">Kushtia</text>
		<text transform="matrix(0.9299 0 0 1 734.9395 1213.4111)" fill="#F0AC0C" font-family="'ArialMT'" font-size="17.8907">Shariatpur</text>
		<text transform="matrix(0.9299 0 0 1 572.5986 1126.0645)" fill="#F0AC0C" font-family="'ArialMT'" font-size="17.8907">Faridpur</text>
		<text transform="matrix(0.9299 0 0 1 796.9873 1019.6221)" fill="#F0AC0C" font-family="'ArialMT'" font-size="17.8907">Narayanganj</text>
		<text transform="matrix(0.9299 0 0 1 925.8135 801.4414)" fill="#F0AC0C" font-family="'ArialMT'" font-size="17.8907">Kishoreganj</text>
		<text transform="matrix(0.9299 0 0 1 462.957 801.4414)" fill="#F0AC0C" font-family="'ArialMT'" font-size="17.8907">Sirajganj</text>
		<text transform="matrix(0.9299 0 0 1 188.6709 624.2988)" fill="#F0AC0C" font-family="'ArialMT'" font-size="17.8907">Naogaon</text>
		<text transform="matrix(0.9299 0 0 1 645.8145 550.0127)" fill="#F0AC0C" font-family="'ArialMT'" font-size="17.8907">Sherpur</text>
		<text transform="matrix(0.9299 0 0 1 354.9565 350.0127)" fill="#F0AC0C" font-family="'ArialMT'" font-size="17.8907">Rangpur</text>
		<g id="g10307">
			<path id="path2273" fill="#E0E0E0" stroke="#CB9369" stroke-opacity="0" d="M-16.183,1798.589
				c0.686-9.307,21.766-17.573,28.284-26.264c4.757-6.344,8.178-18.668,10.102-28.284c3.133-15.667,8.081-25.637,8.081-42.427
				c0-12.97,3.59-25.139,8.081-36.365c5.304-13.26,17.377-24.517,26.264-36.366c11.233-14.978,29.308-22.991,44.447-34.345
				c17.254-12.94,37.824-28.694,48.487-46.467c16.842-28.069,53.192-23.094,78.792-12.122c2.552,1.094,5.387,1.347,8.081,2.021
				c4.052,1.013,14.879,27.737,16.163,30.304c4.233,8.466,13.777,6.062,24.244,6.062c9.955,0,9.995-10.527,8.081-18.183
				c-1.797-7.187,15.598-3.313,22.224,0c4.587,2.293,8.435,16.87,10.101,20.203c3.725,7.448-5.061,12.142-8.081,18.183
				c-3.741,7.482,2.01,14.1,4.041,22.224c2.39,9.557,6.689,11.63,4.041,22.223c-2.063,8.254-6.232,14.228-14.143,18.184
				c-10.606,5.303-8.943,9.239-2.02,16.162c6.214,6.214,3.599,17.928,2.02,24.243c-1.771,7.084-1.281,13.06,0,18.183"/>
			<path id="path9336" fill="#E0E0E0" d="M313.147,1542.01c10.102,15.152,18.183,21.214,18.183,21.214l7.071,13.132l6.061,13.132
				l-16.163,5.051l-4.041,16.162l1.01,9.092l8.081,15.152l6.061,13.132l-15.152,23.233l-4.041,11.111l8.081,18.183l-5.051,21.214
				l15.152,16.162v24.244l-9.091,12.121l-24.244,4.041l-7.071-59.599l-11.112-140.412L313.147,1542.01L313.147,1542.01z"/>
		</g>
		<path id="path10311" fill="#D7D7D7" d="M1527.143,1620.857l-18.571,7.143l-5.714,7.143l4.285,17.144l5.715,22.856l5.714,14.286
			l-11.429,15.714l2.857,17.144l-4.286,15.714l-1.428,21.429l1.428,27.143l7.144,35.715l1.429,20l4.285,31.429l8.571,15.714
			l5.715,10l-11.429,2.857l-14.286,12.856l-8.571-1.428L1485.715,1888l1.428-14.285l-5.714-4.286l-5.715,8.571l-20,1.429
			l-12.856-8.571l-4.286-12.857l-2.856-11.429l-11.429-11.428L1411.429,1858l-8.571-4.285l-7.143,10L1390,1878l-15.715,1.429v10
			l7.144,34.285l-10,14.286l10,21.429l17.143,20l-5.714,14.285l8.571,25.715l5.714,15.714l-4.285,7.143l10,17.144v12.856
			l4.285,12.857l2.857,8.571l-5.715,18.571l10,27.143l41.429,5.715l57.144-1.429l14.285-7.143l4.286-88.571l-2.857-367.144
			L1527.143,1620.857L1527.143,1620.857z"/>
		<path id="path12251" fill-opacity="0" stroke="#000000" d="M1502.857,1632.285l25.714-15.714"/>
		<text transform="matrix(1.0381 0 0 1 1399.7139 1967.6436)" fill="#926733" font-family="'ArialMT'" font-size="24.5597">MYANMAR</text>
		<text transform="matrix(1.0381 0 0 1 1119.3818 1047.1123)" fill="#926733" font-family="'ArialMT'" font-size="24.5597">TRIPURA</text>
		<text transform="matrix(1.0381 0 0 1 1119.3818 1077.8125)" fill="#926733" font-family="'ArialMT'" font-size="24.5597"> (INDIA)</text>
		<text transform="matrix(1.0381 0 0 1 774.4482 393.0059)" fill="#926733" font-family="'ArialMT'" font-size="24.5597">MEGHALAYA</text>
		<text transform="matrix(1.0381 0 0 1 774.4482 423.7061)" fill="#926733" font-family="'ArialMT'" font-size="24.5597">   (INDIA)</text>
		<text transform="matrix(1.0381 0 0 1 69.877 1455.7949)" fill="#926733" font-family="'ArialMT'" font-size="24.5597">WEST BENGAL</text>
		<text transform="matrix(1.0381 0 0 1 69.877 1486.4941)" fill="#926733" font-family="'ArialMT'" font-size="24.5597">    (INDIA)</text>
		<path id="path13274" fill="none" stroke="#000000" d="M968.571,518v27.143l8.571,5.715h-12.856L960,556.571l12.857,4.286
			l-5.715,5.714l-2.856,14.286l7.143,10L970,606.571l20,4.286l5.714,11.429l20.001,2.856l10,10l-1.429,8.572l4.285,10l10-11.429
			l8.571,8.571v8.571l-10,2.857l-4.285,14.285l17.143,7.143l12.857,4.286l4.285,11.429l-15.714,12.857v17.143l10,10l-7.144,17.143
			l-17.143,8.571l4.286,4.286l11.429-4.286l7.143,5.715l1.429,8.571l-5.715,5.714l10,17.144v4.285l-10,1.429l5.715,7.143v8.571
			l-8.571,4.286l-14.286-2.857l-4.286,7.144l8.572,4.285l1.428,5.715l-8.571,7.143l14.286,1.429l14.285,7.143l11.429-12.857
			l15.715-2.856l-1.429,10l-14.286,8.571l10,10l-1.429,5.714l-12.856-4.285l-2.857,12.856l11.429,7.144l-11.429,2.856l2.857,11.429
			l2.856,8.571l8.572,5.715l-5.715,10l1.429,7.143l0,0l0,0v1.429"/>
		<path id="path13557" fill="none" stroke="#000000" stroke-width="0.9992" d="M584.286,438L570,426.571l-2.857,8.571l7.144,5.715
			l-12.857,5.714v22.857L570,480.857l1.429,10l-7.143,11.429l-8.572-1.429L547.143,508l-1.429,12.857L530,543.715l4.286,11.428
			l-5.715,8.572l7.143,7.143l-7.143,5.714l7.143,1.429v7.143L530,592.286l5.714,5.714l1.429,7.143l5.715,14.286l-5.715,1.429v14.285
			l7.144,10l12.856-1.428v8.571l-2.856,4.285l4.285,7.143l2.857-5.714l17.143,10l-1.429,7.143L570,676.571L577.143,688
			l-1.429,17.143l-1.429,11.429l-7.143-1.429l5.715,11.429L570,735.143l-2.857,5.715h-5.714l-7.144,4.285L560,756.571v12.857
			l-11.429,12.857l14.286,11.428l2.856,7.144l-7.143,5.714L574.285,828v17.143l-2.856,17.144l4.285,10L570,876.571l11.429,8.571
			l2.856,14.286v14.286l-8.571,12.856L550,932.286l-11.429-1.429l-4.286,11.429L530,956.571l11.429,7.144l5.714-2.857l7.143,12.857
			l-5.714,1.428l-10-8.571v10l18.571,5.715l11.429,7.143L550,996.571l-14.286-1.429L517.143,988l-25.714,10L460,980.857
			l-5.715-14.286l-17.143-20L440,963.715l-7.143,5.714v1.429l-15.715-1.429l-4.285-7.143l-17.143-22.857l-21.429,1.429l-7.143-7.143
			l-20,1.428l-11.428,5.715v-1.429l-4.286-7.143h-7.143l-5.714-10l2.857-15.715l-8.572-10h-15.714l-10-8.571l-5.714,8.571
			l-14.286-2.856l-15.714,1.428l-27.143-21.428l-12.857-1.429l0,0"/>
		<path id="path13840" fill="none" stroke="#000000" d="M422.244,972.284l2.02,32.325l2.021,6.061l-14.142,10.102l4.04,10.102
			l20.96,19.984l15.715-5.715l5.714,7.143l12.857,12.857l5.714,24.286L490,1102.285l-5.714,1.429l-5.715,2.857v7.143h18.571
			l14.286,11.429l1.429,14.286L524.286,1158l-10-5.715l-5.715,5.715l7.143,7.143l-2.856,15.715l4.285,12.856H530l-10,7.144
			l2.857,11.428l12.856-2.856l8.572,7.143l-1.429,14.286l11.429-7.144l11.428,4.286l-11.428,25.714h-11.429l15.714,17.144
			l7.143,15.714l17.144,8.571l-5.715,17.143l12.857,7.144l-5.714,8.571l2.856,11.429l8.571,7.143l15.715-7.143l10,8.571l1.429,30
			l-20,4.285V1398h12.856l11.429,5.715l-1.429,15.714l7.144,20l-5.715,10l5.715,25.714l-17.144-15.714l-10-5.714l4.286,12.856
			l12.857,12.857l5.714,5.714h-7.143l-10,11.429v17.144L598.571,1538l-5.714,24.285l10,14.286l4.285,24.286l-11.429,20l7.144,15.714
			l-5.715,22.857l8.571,14.285l-1.428,10l2.856,30v1.429"/>
		<path id="path14125" fill="none" stroke="#000000" d="M621.244,1348.061l3.03-12.122l20.203,2.021l8.081-10.102l-1.01-11.111
			l12.121-12.122l2.021-11.111l12.122-3.03l1.01-7.071h11.112l-1.011-13.132l17.173-1.011l7.071-7.071l5.051,3.031l-3.03,29.294
			l18.183,7.071l17.172-5.051l7.071,8.081l5.051-13.132l18.183-7.071l14.143,4.041l14.142,8.081l16.163,13.132l18.183,7.071
			l17.173,8.081l8.081,8.081l7.071,16.162l11.111,22.224l5.051,23.233l9.092,30.305l11.111,15.152l15.152,17.173l14.142,19.192
			l-2.02,16.163l22.223,22.223l12.122,14.143v14.142l-10.102,16.163l-1.01,16.162v37.376l3.03,21.213l0,0"/>
		<path id="path14412" fill="none" stroke="#000000" d="M828.571,1310.857l1.429-24.286l-5.714-17.143L811.429,1258l10-2.857
			l-7.143-11.428l10-7.144l10-14.285l-5.715-17.144l-7.143-28.571l-2.857-21.429l4.286-15.714l15.714-24.286l30-11.428l-7.143-30
			L860,1046.571l10,1.429l8.571-10l1.429-14.286l15.714-21.428l-1.429-12.857l11.429-10L920,986.571l22.857-4.285l8.571-12.857
			L960,946.571h8.571l-7.143-11.429l11.429-15.714l14.285-2.857v-7.143l5.715-5.714v-11.429l-8.572-2.857l-10-12.857L990,860.857
			l14.285,2.856l7.144-11.428l27.143-4.286H1040"/>
		<path id="path15672" fill="#3F3F3F" d="M775.905,1046.976l-6.172-3.888l-5.52,4.221l1.79-7.071l-5.72-3.944l7.278-0.482
			l1.983-6.659l2.708,6.773l6.946-0.171l-5.604,4.668L775.905,1046.976z"/>
		<path id="path15674" fill="#3F3F3F" d="M472.751,1502.614c0,3.347-2.487,6.061-5.556,6.061s-5.556-2.714-5.556-6.061
			c0-3.348,2.487-6.062,5.556-6.062S472.751,1499.267,472.751,1502.614z"/>
		<path id="path15676" fill="#3F3F3F" d="M793.994,1367.632c0,3.348-2.487,6.062-5.556,6.062s-5.557-2.714-5.557-6.062
			s2.488-6.061,5.557-6.061S793.994,1364.284,793.994,1367.632z"/>
		<path id="path15678" fill="#3F3F3F" d="M1240.973,1498.573c0,3.348-2.487,6.062-5.557,6.062c-3.068,0-5.556-2.714-5.556-6.062
			c0-3.347,2.487-6.061,5.556-6.061C1238.485,1492.513,1240.973,1495.227,1240.973,1498.573z"/>
		<path id="path15680" fill="#3F3F3F" d="M1314.395,643.697c0,3.348-2.487,6.062-5.556,6.062s-5.556-2.714-5.556-6.062
			c0-3.347,2.487-6.061,5.556-6.061S1314.395,640.351,1314.395,643.697z"/>
		<path id="path15682" fill="#3F3F3F" d="M193.444,778.335c0,3.347-2.487,6.061-5.556,6.061c-3.068,0-5.556-2.714-5.556-6.061
			c0-3.348,2.487-6.062,5.556-6.062C190.957,772.273,193.444,774.987,193.444,778.335z"/>
		
			<rect id="rect28425" x="1046.172" y="43.003" fill="#F0F0F0" stroke="#646464" stroke-width="1.034" stroke-linecap="round" stroke-linejoin="round" stroke-opacity="0.9922" width="451.441" height="391.939"/>
		<path id="path17622" fill="#3F3F3F" d="M1110.439,322.127c0,3.348-2.487,6.062-5.556,6.062c-3.069,0-5.557-2.714-5.557-6.062
			c0-3.347,2.487-6.061,5.557-6.061C1107.952,316.066,1110.439,318.78,1110.439,322.127z"/>
		<path id="path17624" fill="#3F3F3F" d="M1111.434,292.295l-6.172-3.888l-5.519,4.221l1.79-7.071l-5.721-3.944l7.278-0.483
			l1.983-6.659l2.708,6.773l6.946-0.171l-5.604,4.668L1111.434,292.295z"/>
		<text transform="matrix(0.8144 0 0 1 1080.248 397.3701)" font-family="'ArialMT'" font-size="37.3495">0</text>
		
			<rect id="rect6653" x="1086.574" y="353.787" fill="#FFFFFF" stroke="#000000" stroke-width="1.25" stroke-linecap="round" stroke-linejoin="round" width="158.571" height="11.595"/>
		
			<rect id="rect7633" x="1244.755" y="353.924" stroke="#000000" stroke-width="1.25" stroke-linecap="round" stroke-linejoin="round" width="158.571" height="11.595"/>
		<path id="path20330" fill="none" stroke="#000000" d="M1077.562,246.064l18.502-5.051l18.502,5.051l25.44-5.051l0,0"/>
		
			<path id="path20332" fill="none" stroke="#646464" stroke-width="3.125" stroke-opacity="0.9922" stroke-dasharray="25,6.25,3.125,6.25" d="
			M1072.839,201.095l18.502-5.051l18.501,5.051l25.44-5.051l0,0"/>
		<text transform="matrix(0.7126 0 0 1 1158.1758 330.833)" font-family="'ArialMT'" font-size="32.6856">Divisional Headquarter</text>
		<text transform="matrix(0.8144 0 0 1 1223.5371 399.5684)" font-family="'ArialMT'" font-size="37.3495">50</text>
		<text transform="matrix(0.8144 0 0 1 1352.8359 397.5479)" font-family="'ArialMT'" font-size="37.3495">100 km</text>
		<text transform="matrix(0.7126 0 0 1 1159.0527 291.5449)" font-family="'ArialMT'" font-size="32.6856">Capital</text>
		<text transform="matrix(0.8548 0 0 1 1130.709 112.2393)" font-family="'ArialMT'" font-size="46.332">BANGLADESH</text>
		<text transform="matrix(0.7126 0 0 1 1134.6973 150.9141)" font-family="'ArialMT'" font-size="32.6856">(Administrative Divisions)</text>
		<text transform="matrix(0.7126 0 0 1 1158.3105 251.375)" font-family="'ArialMT'" font-size="32.6856">Divisional Boundary</text>
		<text transform="matrix(0.7126 0 0 1 1156.3096 205.7744)" font-family="'ArialMT'" font-size="32.6856">International Boundary</text>
		<path id="path5037" fill="none" stroke="#000000" stroke-width="0.9992" d="M528.205,563.463l-4.199-3.359l-21.834,2.939
			l-2.519,8.397h-6.299l-4.198-5.878l-15.955-2.52l-9.657-10.497l-4.199,7.138l-10.077-5.878l-3.778,5.458l-10.917-1.26
			l-2.939-12.596l-9.657-3.359l-13.016-2.52l-5.879,4.199l-1.259,0.84l-7.138-5.039l2.099-2.938l-10.917-13.856l-6.028-3.586
			l-4.889-9.43l4.199-11.757l-12.596-3.779l-19.314,2.1l-6.718-9.657l-12.597,3.359l-12.596-9.237l0,0l0,0l0,0"/>
		<path id="path15680-9" fill="#3F3F3F" d="M396.953,365.457c0,3.348-2.488,6.062-5.556,6.062s-5.556-2.714-5.556-6.062
			s2.487-6.061,5.556-6.061S396.953,362.109,396.953,365.457z"/>
	</g>
</g>
</svg>
